<svg xmlns="http://www.w3.org/2000/svg" viewBox="0 0 561.53 59.29"><style>.st0{fill:#ff7f40}.st1{fill:#fff}</style><g id="Layer_1"><path class="st0" d="M500.52 55.01l-1.26-.99-1.08-1.35-.45-1.35.63-.99 1.8-.18 2.16.72 1.71.63s1.17 1.44 1.44 1.53c.27.09 2.52 1.71 2.52 1.71l2.16 1.53 1.71.99-2.07.36-5.3-.81-2.16-.63-1.81-1.17zm25.4-13.64c.14-.16 1.17.41 1.28.53 0 0 .03.04-.29-.64-.13-.27-.28-.79-.32-.91-.06-.19-.12-.37-.19-.77-.06-.33-.13-.94-.14-1.03-.01-.28.01-.49.09-.68.04-.1.24-.53.27-.66.04-.16.11-.32.15-.42.05-.13.12-.26.17-.38.07-.15.09-.36.18-.51.05-.09.13-.32.22-.46s.27-.18.32-.32c.05-.14.09-.11.01-.18-.07-.07-.05-.09-.19-.14-.14-.05-.85-.5-1-.64-.2-.19-.43-.5-.58-.8-.15-.29-.2-.54-.23-.62-.07-.19-.05-.5-.02-.61.02-.07.06-.25.13-.41.07-.16.1-.2.23-.35.14-.16.23-.25.21-.29-.06-.12-.1-.13-.28-.29-.18-.16-.22-.22-.36-.31-.14-.09-.75-.63-.86-.7-.11-.07-.63.23-.73.25-.11.02-.34.3-.47.39-.13.09-.47.57-.47.57s-.21.36-.35.45c-.13.08-.37.3-.51.34-.14.04-.79.45-1.29.68-.5.23-1.9.72-2.51.72h-2.2c-.21 0-1.02-.14-1.27-.36-.25-.21-1.83-1.33-1.93-1.47-.11-.14-.54-.63-.63-.75-.09-.13-.56-.16-.79-.08-.19.06-.48.19-.83.5-.15.14-.4.56-.46.74-.02.08-.38 1.14-.43 1.4-.07.39-.07.77-.07 1.03 0 .14.06 1.02.09 1.16.03.16.06.36.15.73.04.15.17.53.19.65.02.13.16.43.22.52.05.09.19.45.2.54.02.09.22.48.29.73.04.12.18.24.19.32.03.19-.03.29-.13.41 0 0-.24.31-.32.46-.06.11-.14.18-.17.26-.11.25-.02.34.02.52s.51.59.63.71c.11.1.34.3.39.36.05.05.14.14.27.24.11.09.21.15.29.23.05.05.12.11.27.21.11.07.59.61.66.69.07.07-.21.69-.09.78.13.09.15.08.38.21.23.12.69.56.84.58.14.02.69-1.16.81-1.16s.23.08.3.16c.07.07.41.02.54.04.12.02.82.19 1.18.18.36-.02.9-.06.99-.11.09-.05.4-1.19.47-1.28.07-.09.78.11.87.09.09-.02.14 1.32.23 1.39.09.07.24-.01.47.01.16.02.27-.05.57-.08.1-.01.19-.03.39-.08.18-.04.21-.06.36-.13.14-.07.25-.06.46-.13.2-.07.31-.12.47-.15.16-.04.34-.1.45-.1.11 0 .29.78.45.93.09.08.18.19.38.09.2-.11.13-.09.27-.25s.91-.34.99-.39c.07-.05-.7-.96-.59-1.01.11-.05.96-.63 1.1-.7l.61-.45zm-13.32-5.22c-.02.15-.2.43-.32.5-.16.1-.26.19-.47.14-.21-.05-.38-.22-.43-.27-.05-.05-.25-.35-.28-.49-.02-.09-.07-.23-.07-.37 0-.14-.04-.59-.03-.73.02-.25 0-.48.02-.67.15-1.35.63-1.23.73-1.27.14-.05.95-.09.93 1.38 0 .16.05.21.04.36-.01.18-.02.38-.01.79-.02.38-.08.43-.11.63zm5.19 1.57c-.25.14-.54.35-1.1.25-.16-.03-.45-.19-.61-.41-.15-.2-.21-.63-.24-.69-.1-.26-.12-1.07-.09-1.34.15-1.27 1.05-1.24 1.39-1.26.22-.01.74.09.98.4.34.45.37 1.31.39 1.53.02.21-.17.62-.17.73 0 .1-.3.65-.55.79z"/><path d="M560.41 56.87c0-.09-.31-.18-.48-.18-.18 0-.29.2-.57.2-.28 0-.75-.11-.83-.24-.09-.13-.92-.11-.97-.2-.04-.09-1.01-.07-1.25-.07s-.44.02-.7-.04c-.26-.07-.42.2-.48.33-.07.13-.2.24-.31.24-.11 0-.37-.13-.48-.24-.11-.11-.42-.11-.5-.18-.09-.07-.57 0-.68-.09-.11-.09-.35-.22-.61-.26-.26-.04-.5.4-.61.44-.11.04-.35.02-.42.02s-.48-.02-.48-.09c0-.07-.37-.2-.64-.2-.26 0-.4.29-.53.31-.13.02-.5-.02-.61-.02-.11 0-1.01-.02-1.08-.02s-.22-.2-.48-.22c-.26-.02-.46.26-.61.26-.15 0-.7.04-.79-.02-.09-.07-.51-.02-.66-.02-.15 0-.66-.07-.72-.13-.07-.07-.86.02-.99-.15-.05-.07-.9-.07-1.1-.07s-.77.07-.88-.02c-.11-.09-.57-.07-.77-.02-.2.04-.44-.02-.59-.04-.15-.02-.59-.13-.75-.15-.15-.02-.33 0-.44.07-.11.07-.51.04-.62 0-.11-.04-.33-.37-.39-.42-.07-.04-.7-.02-.77.09-.07.11-.37.24-.5.29-.13.04 0 0-.29.07s-.33 0-.57 0c-.24 0-.88 0-1.23.04s-.94-.02-1.08-.13c-.13-.11-.13-.13-.09-.26.04-.13.44-.72.61-.9.18-.18.53-1.1.61-1.27.09-.18.31-.68.42-.83.11-.15.29-.86.33-1.08.04-.22-.04-.53.13-.61.18-.09.24-.81.24-1.01 0-.2.04-.75.04-.94 0-.2.04-.62-.04-.79-.09-.18-.13-.64-.11-.72.02-.09.09-.18.31-.31s.35-.99.31-1.19c-.04-.2-.07-.42.09-.46.15-.04.72.02.99.02.26 0 1.12.2 1.25.24.13.04.33.11.57.11s.7.13.88.18c.18.04.37.24.53.2s1.1.24 1.3.26c.2.02 1.47.37 1.67.44.2.07.44.07.5.09.07.02.5.13.75.15.24.02.55.18.61.24.07.07.73.2.81.2.09 0 .35.09.44.13.09.04.33.22.48.29.15.07.53.13.68.15.15.02.44.22.57.24.13.02.64.39.79.44.15.04.37.29.79.53.42.24.94 1.08 1.25 1.43.31.35.59 1.36.4 1.78-.2.42-.94 1.01-1.58 1.1-.26.04-1.25-.04-1.41-.09-.15-.04-.72-.48-.94-.61-.22-.13-.61.07-.61.35 0 .29.66.68.77.77.11.09.37.18.46.18.09 0 .55.07.83.09.28.02.79-.09.88-.09.09 0 .53.02.61 0 .09-.02.92-.59 1.19-.83.26-.24.62-1.03.66-1.4s-.4-1.16-.55-1.45c-.15-.29-.72-.94-.81-1.03-.09-.09-.26-.26-.42-.33-.15-.07-.48-.37-.68-.55-.2-.18-.86-.59-1.19-.75-.13-.06-.42-.13-.5-.18-.09-.04-.33-.13-.44-.22-.11-.09-.9-.35-1.16-.42-.26-.07-.46-.13-.57-.13-.11 0-.31-.07-.44-.11-.13-.04-.37-.07-.55-.2-.18-.13-.83-.26-1.01-.35-.18-.09-.59-.07-.77-.15-.24-.12-.94-.2-1.03-.22-.09-.02-.4-.15-.53-.22s-.99-.18-1.23-.24c-.24-.07-.75-.2-.83-.2-.09 0-.35-.09-.53-.18-.18-.09-.94-.2-1.08-.22-.13-.02-.53-.09-.72-.2-.2-.11-.81-.07-.92-.09-.11-.02-.29-.11-.48-.18-.12-.05-.31-.19-.35-.28-.04-.09-.09-.29-.25-.4-.16-.1-.23-.34-.34-.5-.1-.16-.47-.56-.57-.72a.6.6 0 01-.04-.5c.04-.1.22-.13.35-.23.13-.1.41-.31.56-.47.15-.16.22-.5.26-.82.04-.32-.51-1.35-.66-1.52-.15-.18-.41-.6-.48-.7-.07-.1-.07-.41-.06-.51.01-.1.37-.34.51-.44.15-.1.73-.64.88-.72.15-.07.4.04.59.09.19.04.48.34.66.38.18.04.6.06.72.1.12.04.47.12.67.13.2.01.29-.12.44-.16.15-.04.85-.62.95-.76.1-.15.18-.56.19-.79.01-.23-.16-.56-.23-.69-.07-.13-.51-.53-.61-.6-.1-.07-.42-.23-.59-.23-.17 0-.5-.07-.51-.07-.01 0-.09-.06-.23-.1-.14-.04-.4-.11-.86-.25-.47-.14-.75-.38-.88-.47-.13-.08-.33-.41-.37-.6-.04-.18-.52-.69-.71-.89-.18-.2-.99-.78-1.12-.85-.13-.07-.44-.1-.54-.27-.1-.17-.51-.62-.62-.75-.11-.13-.33-.13-.38-.13-.06 0-.24-.03-.27-.11-.03-.08-.37-.28-.44-.33-.07-.04-.06-.23-.06-.34 0-.11-.86-.95-1.16-1.25-.3-.3-.75-.85-1.18-1.02-.11-.04-.32-.01-.47-.17-.34-.37-2.22-.68-2.68-.75-.45-.07-.54-.27-.58-.37-.04-.1-.07-.24.11-.37s.89-.69 1.16-.94c.27-.24.82-.84.92-1.05.1-.21.33-.37.42-.57.1-.2.37-.13.64.18.17.2 1.19 1.28 1.86 1.76.67.48 1.88.69 2.49.67.61-.03 1.97-.59 2.2-.72.23-.13 1.08-.89 1.33-1.22.26-.33.65-1.02.75-1.29.1-.27.31-.79.38-1.08.07-.28.21-.57.25-.85.04-.28.11-.65.03-.88-.09-.23-.17-.69-.2-.84-.03-.14-.24-.75-.35-1.02-.11-.27-.42-.74-.61-.99-.18-.26-.75-.84-.94-.94-.18-.1-.4-.21-.51-.35-.11-.14-.64-.26-.92-.33s-1.02-.24-1.33-.25c-.31-.01-1.05.03-1.37.1-.33.07-1.02.48-1.29.65-.27.17-.69.62-.78.67-.08.04-.3 0-.33-.06-.03-.06 0-.24-.07-.44-.06-.17-.1-.57-.09-.67.01-.1-.04-.23-.11-.47-.07-.24-.58-1.06-.69-1.25-.11-.18-.16-.45-.07-.5.09-.04.55-.06.75-.1.2-.04 1.22-.67 1.49-.86.27-.2 1.46-1.66 1.6-1.93.14-.27.37-.96.4-1.2.03-.24.04-.95-.01-1.05-.06-.1-.11-.26-.14-.38-.03-.13-.07-.37-.07-.47 0-.1 0-.28-.11-.45-.11-.17-.6-.69-1.03-1.12-.35-.33-1.57-1.27-1.9-1.45-.33-.17-.86-.33-.96-.41-.1-.08-.82-.25-1.73-.24-.91.01-1.86.27-2.35.5-.5.23-.94.54-1.13.69-.2.16-.75.77-.91 1.06-.16.3-.44.78-.51.95-.07.17-.13.81-.14 1.11-.01.3.26 1.42.35 1.62.1.2.11.35.05.45-.06.09-1.91.13-2.15.2s-1.1.35-1.3.4c-.2.04-1.23.48-1.6.7-.37.22-1.27.86-1.51 1.14-.24.29-1.2 1.33-1.41 1.49-.2.16-.45.1-.61.01-.16-.09-.51-.23-.57-.31-.06-.07-.57-.23-.63-.25-.06-.01-.19-.1-.19-.23s.03-.45.07-.59c.04-.13.11-.45.09-.6-.03-.22-.09-.4-.15-.6-.04-.15-.18-.45-.26-.66-.09-.2-.53-.63-.8-.86-.28-.23-.78-.21-1.07-.01-.42.28-.95.94-1.05 1.48-.05.28-.04.95-.06 1.08-.01.13 0 .38.03.6.03.22.18 1.05.31 1.21.13.16.04.45-.2.56-.25.1-.4-.09-.41-.16-.01-.07-.47-.44-.56-.56-.09-.12-.31-.4-.4-.51-.09-.12-.28-.41-.32-.47-.04-.06-.16-.23-.23-.35-.07-.12-.26-.29-.41-.48-.15-.19-.61-1.02-.61-1.1 0-.07.54-.61.76-1.3.11-.34.16-.67 0-.84-.16-.17-.21-.44-.24-.59-.03-.16.06-.3.16-.5.13-.26.04-.76-.19-.96-.23-.2-.39-.45-.33-.69.1-.43 1.35-.47 2.25-1.02.9-.54 1.08-2.1.51-2.64-.25-.23-.76-.52-.92-.52-.15 0-.46-.11-.79-.13-.33-.02-1.03.02-1.21.07-.18.04-.55.07-.64.12-.09.04-.28.19-.37.21-.09.02-.42.15-.57.31-.15.15-.57.59-.79.81-.22.22-.72 1.01-.79 1.05-.07.04-.53.04-.75.04-.22 0-.79.07-.86.02-.25-.17-.92-.5-1.12-.57-.2-.07-.5-.18-.64-.24-.13-.07-.5-.24-.75-.31-.24-.07-1.14-.24-1.27-.26-.13-.02-.69-.1-.92-.1h-.87c-.29 0-.93.19-1.22.28-.29.09-.64.4-.7.79-.15 0-.42.04-.7.09-.29.04-.72.22-1.08.35-.35.13-.66.51-.88.66-.22.15-.35.53-.48.66s-.09.31-.29.7c-.2.4 0 .77.18 1.05.18.29.79.55.97.61.18.07.53.2.64.24.11.04.5.09.61.2.11.11.55.13.81.2s1.25.35 1.65.42c.39.07.88.35.99.46.11.11.42.66.44.94.02.29.75.92.75.92s.37.24.44.33c.07.09.94.61 1.1.66.15.04.59.31.75.35.15.04.44-.02.5.04.07.07.33.18.44.18.11 0 .35-.07.46.02.11.09.72.42.94.53.22.11.55.07.86-.07.1-.04.64-.24.83-.37.2-.13.37-.11.5.07s1.73 2.11 1.93 2.31 1.38 1.51 1.49 1.67c.11.15.46.48.53.77.07.29.09 1.01.44 1.71.23.45 1.1 1.65 1.34 1.91s1.05.86 1.43 1.08c.37.22.83.48.99.61.15.13.66.66.77.77.11.11.15.31.29.44.13.13.15.11.29.2.13.09.22.31.4.51.18.2.55.72.68.81.13.09.09.2.02.37-.07.18-.48.59-.66.75-.18.15-1.45 1.6-1.45 1.6s-.35.4-.46.5c-.11.11-.66.72-.79.88-.13.15-.81.88-.88.92-.07.04-.13.22-.2.29-.07.07-.22.24-.33.35-.11.11-.18.75-.33.81-.15.07-.29.81-.29.97 0 .15-.07.46-.13.5-.07.04-.11 1.14-.09 1.27.02.13.11 1.08.15 1.38.04.31.57 1.89.66 2.09.09.2.31.66.31.72 0 .07-.18.33-.37.55-.2.22-.29.59-.31.92-.02.33.22.64.31.7.09.07.35.37.44.48.09.11.81.61 1.03.79.22.18.7.55.81.68.11.13.13.5.02.55-.11.04-.2.4-.18.57.02.18-.11.22-.2.33-.09.11-.26.79-.35.99-.09.2-.46.5-.53.7-.07.2.15.42.09.53-.07.11-.33.57-.4.79-.07.22-.18.61-.26.81-.09.2-.46 1.1-.55 1.34-.09.24-.29.48-.44.55-.15.07-1.14.15-1.25.15-.11 0-.61-.46-.7-.55-.09-.09-.7-.42-.9-.68-.2-.26-1.91-1.38-2.11-1.51-.2-.13-.81-.42-1.05-.61-.24-.2-.66-.22-.92-.35-.26-.13-.44-.15-.7-.22-.26-.07-.7.15-.97.18-.37.03-1.19.42-1.38.57-.2.15-.46.4-.7.53-.24.13-.88.9-.99 1.23-.11.33.2.46.24.53.04.07.09.24.04.35-.04.11-.15.09-.31.07-.15-.02-.15.24-.29.31-.13.07-.31.2-.35.29-.04.09-.13.24-.31.37s-.11.72-.07 1.21c.04.48.4 1.03.59 1.23.2.2.7.68.77.72.07.04.22.37.37.61s.92.83 1.1.94c.18.11.59.22.88.42.29.2.24.24-.02.29-.17.03-.44-.07-.66-.09-.22-.02-.44-.13-.61-.09-.18.04-.22.18-.35.07-.13-.11-.4-.22-.66-.31s-.92-.18-1.05-.22c-.13-.04-.24-.15-.42-.09-.18.07-.2.35.09.39.29.04.66.11.53.2-.13.09-.66.02-.77.04-.11.02-1.01.07-1.32.07-.31 0-.61-.29-1.01-.31-.4-.02-1.05.11-1.21.2-.15.09-.57.2-.77.2-.2 0-.57-.04-.64-.13-.07-.09-.22 0-.33.02-.11.02-.48.13-.59.02-.11-.11-.24-.11-.33-.02-.09.09-.33.15-.46-.02-.13-.18-.46-.07-.61-.07-.15 0-.42-.13-.7-.22-.29-.09-1.1.2-1.23.11-.13-.09-.66-.07-.77 0-.11.07-.2.18-.4.18s-.44.2-.57.22c-.13.02-.66.13-.81.13-.15 0-.24-.09-.33-.2-.09-.11-.79-.07-.97-.07-.18 0 .02.24-.61.24-.2 0-.31-.18-.59-.2-.29-.02-.72.11-.9.15-.18.04-.24.18-.35.15-.11-.02-.57.07-.81.18-.24.11-.37.18-.51.18s-.37-.11-.4-.24c-.02-.13-.83-.07-.99-.07-.15 0-.86.07-.97.04-.11-.02-.22.04-.22.15 0 .11-.18.29-.72.37-.55.09-.79.86-.57 1.1.22.24.72.13 1.1.18.37.04.4-.13.61-.13.46 0 .83-.51.99-.61.15-.11.66-.07.86-.13.2-.07.29-.26.48-.29.2-.02.75.31.83.35.09.04.72 0 .92-.09.2-.09.37-.29.5-.31.13-.02.26.09.42.07.15-.02.44 0 .61 0 .18 0 .4.18.53.15.13-.02.33-.04.46-.02s.48.24.64.24c.15 0 .46.2.57.2.11 0 .37-.13.48-.13.11 0 .79.02 1.03 0s.9-.09 1.25-.07c.35.02.44.22.61.22.18 0 .31-.2.31-.2h.44c.24 0 .97-.04 1.05.04.09.09.35.2.46.2.11 0 .61-.07.79-.07h1.51c.18 0 .31-.18.55-.2.24-.02.29.2.46.22.18.02.31-.15.4-.15.09 0 .11.09.22.11.11.02.2-.11.39-.13.2-.02.37-.26.51-.26s.29.22.48.22c.2 0 .94.04 1.12.04.18 0 .26-.02.4.02.13.04.33.11.46.13.13.02 1.01-.11 1.12.07.11.18 2.26.11 2.46.09.2-.02.66.07.9.04.24-.02.94-.04 1.14-.02.2.02.29.07.4.04.11-.02.4.04.55.07.15.02 1.27 0 1.43 0s1.27.07 1.41.04c.13-.02.22-.02.39-.02.18 0 1.03.09 1.16.09.13 0 1.19 0 1.34-.02.15-.02.66.2.94.2.29 0 .42-.29 1.1-.31.31-.01.68.22 1.03.18.35-.04.7-.07.77-.07.07 0 .44.07.59.07.15 0 .33-.09.46-.15.13-.07.2-.13.31 0 .11.13.26.18.53.18.26 0 .29-.22.37-.29.09-.07.61.07.88.04.26-.02.97.04 1.12.04s.29-.18.42-.18.26-.11.39-.07c.13.04.11.18.26.18.15 0 .18-.18.18-.18s.26-.04.33 0 .2.11.35.11c.15 0 1.14.04 1.34.04.2 0 1.95.02 2.28 0 .33-.02 2.57 0 2.59.09.02.09.31.11.92.11.2 0 2.85-.02 3.25-.02.4 0 .57-.07.68-.11.11-.04.42 0 .53 0 .11 0 .24.2.37.15.13-.04.31-.15.55-.15.24 0 .26.07.46.13.2.07 1.19 0 1.32 0 .13 0 .94-.02 1.3 0 .35.02.5-.13.7-.18.2-.04.55 0 .64 0 .09 0 .51.04.7-.02.2-.07 2.11.07 2.39.07.29 0 1.14-.02 1.16.09.02.11.33 0 .51 0s1.03.04 1.23.04c.2 0 1.05.02 1.23.04.18.02.7.07.88-.04.18-.11 1.03.02 1.23.02.2 0 .42-.02.5.02.09.04.46.18.64.18s.24-.29.42-.35c.18-.07.9-.02.9-.02s.11.22.79.15c.11-.01.46.11.68.07.22-.04.35-.37.68-.44.16-.03.57-.02.68-.02.11 0 .4.07.5.15.11.09.68.07.83-.04.15-.11.64-.61.83-.61.2 0 .33.31.57.42.24.11.66.15.72.15s.13.09.33.13c.2.04.79.09 1.03.07.24-.02.46-.18.72-.2.26-.02.48.15.68.15.2 0 .4-.26.61-.24.22.02.66.04 1.05-.13.24-.11.31-.42.31-.53.01-.08-.41-.17-.41-.26zm-32.43-19.02c-.06.1-.19.22-.23.32-.04.1-.21.45-.15.57.06.12-.1.53.01.6.12.07.2.04.23.16s.04.59.07.72-.01.38.06.48c.07.1.19.18.2.32.01.15.04.42.15.5.1.07.29.26.48.31.19.04.81-.03.92-.1.12-.07.31-.26.42-.38.12-.12.41-.59.38-.7-.03-.12.09-.37.09-.54 0-.18.1-.51.06-.66-.04-.15.07-.35.12-.5.04-.15.22-.35.48-.4.26-.04.69.23.78.47.09.23.29.75.38.94.09.19.31.63.42.91.12.28.37.59.47.69.1.1.42.45.29.59-.13.13-.41.28-.54.2-.13-.07-.37-.25-.44-.26-.07-.01-.48-.11-.75-.1-.37.01-.79.09-.98.25-.19.16-.51.38-.64.38s-.5-.13-.6-.16c-.1-.03-.28-.15-.39-.2-.12-.06-.51-.29-.6-.31-.09-.01-.28-.18-.44-.22-.16-.04-.41-.28-.57-.28s-.39.04-.41-.06c-.01-.1-.09-.34-.16-.38-.07-.04.01-.22-.06-.41-.07-.19-.03-.45-.19-.48-.16-.03-.13-.35-.13-.59 0-.23-.2-.47-.15-.75.06-.28-.01-.48.15-.69.16-.2.4-.57.56-.82.16-.25.31-.67.32-.88.01-.2.16-.53.32-.53.15 0 .39.18.42.28.03.1.15.31.09.37s-.33.45-.4.61c-.15.42.02.63-.04.73zm-1.23 4.22c.2.13.7.29.79.33.1.04.32.11.39.15.07.04.49.33.6.37.11.04.27.04.33.24.06.2-.14.35-.21.4-.08.05-.39.36-.45.43s-.33.56-.37.73c-.03.17-.06.44-.11.52-.06.07-.27.18-.38.18-.11 0-.56-.14-.72-.3-.16-.16-.49-.42-.58-.52-.09-.1-.25-.18-.29-.21-.03-.03-.06-.19-.14-.28-.08-.09-.27-.23-.31-.29-.04-.06-.06-.36-.15-.48s-.19-.29-.29-.37c-.09-.07-.15-.21-.09-.29.09-.12.5-.44.66-.52.16-.07.61-.39.71-.41.1-.03.41.19.61.32zm-.22-14.18c.1.04.67.15.79.19.12.04.62.33.83.44.22.11.89.63 1.07.82.18.19.56.57.51.72-.05.15-.42.46-.53.55-.11.08-.27.33-.26.4.01.07.01.31.01.42 0 .11-.03.44-.14.46-.11.03-.33-.07-.34-.2-.01-.14-.26-.56-.34-.67-.08-.11-.45-.42-.63-.45-.18-.03-.67-.15-.85-.05-.18.1-.37.08-.46 0-.1-.08-.46-.44-.66-.55-.19-.11-.89-.63-.92-.82-.01-.1.04-.31.08-.38s.16-.36.16-.45c0-.1.03-.27.12-.38.1-.11.38-.08.72-.1.37-.02.75.01.84.05zM512.34 41.6c-.26-.16-.93-.73-1.05-.87s-.32-.4-.28-.47c.04-.08.2-.26.28-.36.08-.1.26-.26.46-.1s.51.28.55.38c.04.1.28.26.44.28.16.02.38-.16.38-.24 0-.08-.38-.44-.61-.55-.24-.12-.61-.77-.73-.91s-.53-.97-.61-1.13c-.08-.16-.3-.95-.38-1.01-.08-.06-.2-.3-.22-.42-.02-.12-.18-.75-.18-.75s-.04-.3 0-.38c.04-.08 0-.61 0-.71 0-.1-.04-.47.04-.57.08-.1.12-.4.12-.47 0-.08.12-.34.16-.44.06-.16.12-.4.22-.57.1-.18.47-.95.59-1.07.12-.12.4-.38.51-.36.12.02.26.38.32.51.06.14.49.55.65.67.16.12.69.36.71.44.02.08.53.28.65.36.12.08.59.44.87.53.28.1 1.09.08 1.33.08s.99.1 1.15.1c.16 0 .71.04.81.02.1-.02.69-.08.89-.12.29-.06.87-.2 1.15-.3.28-.1 1.01-.51 1.25-.65s.46-.36.53-.38c.08-.02.38-.1.47-.16.1-.06.3-.42.42-.57.12-.16.42-.49.47-.55.06-.06.34-.42.47-.47.14-.06.42.1.55.22.14.12.59.46.69.55.1.1-.02.36-.04.42s-.02.28-.1.45c-.08.18-.12.63-.1.71.02.08.04.49.1.53.06.04.3.46.36.55.06.1.28.44.4.57.12.14.4.47.48.49.08.02.26.08.26.2 0 .12.06.44.1.51.04.08.08.44.02.49-.06.06-.34.36-.36.47-.02.12-.22.46-.22.55s-.1.36-.1.51c0 .16 0 .34-.08.44-.08.1-.26.34-.44.4s-.32-.1-.38-.16-.28-.4-.44-.34c-.16.06-.26.4-.26.65 0 .26-.02.83-.02 1.01 0 .18-.02.46.1.49.12.04.38.04.47-.08.1-.12.2-.46.28-.55.08-.1.44-.16.47-.1.04.06.18.44.22.53.04.1.12.4.12.53 0 .14-.1.38-.26.53-.16.16-.89.67-1.09.75-.2.08-1.11.49-1.21.55-.1.06-.85.44-.99.47-.14.04-.69.18-.81.2-.12.02-.47.12-.53.18-.06.06-.36 0-.47.02-.12.02-.26.2-.38.2s-.36-.08-.42-.18c-.06-.1-.16-.26-.06-.32s.44-.34.63-.36c.2-.02.4-.18.36-.32-.04-.14-.16-.53-.42-.49-.26.04-.97 0-1.11.08-.14.08-.65.14-.79.14s-.81-.08-.89-.08c-.08 0-.4-.14-.57-.14-.18 0-.53.02-.67.22s-.16.46.06.55c.22.1.63.2.75.2s.22.08.2.2c-.02.12-.1.34-.28.36-.18.02-.63-.08-.77-.04a.608.608 0 01-.4-.06c-.06-.04-.26-.18-.42-.18-.16 0-.53-.02-.75-.08-.22-.06-.95-.34-1.17-.44-.18-.04-1.19-.63-1.45-.79zm-13.78 9.23c.12-.04.48-.27.48-.27s.21-.08.31-.08.94-.04 1.12.02c.19.06 1.04.19 1.16.27.12.08.83.25 1 .35.17.1.69.35.85.46.17.1.85.46 1.02.64.17.19.23.35.23.35s-.25-.06-.33-.13c-.08-.06-.83-.35-.91-.44a.86.86 0 00-.35-.19c-.1-.02-.42-.12-.48-.15-.06-.02-.33-.29-.42-.29-.08 0-.27.06-.33.02-.06-.04-.39-.25-.48-.29-.08-.04-.48-.08-.64-.12-.17-.04-.77-.1-.91-.1s-.5.04-.62.1c-.12.06-.37.25-.46.27-.08.02-.23-.02-.29-.12-.04-.04-.07-.25.05-.3zm10.72 5.89c-.25.02-1.16-.08-1.39-.08-.23 0-1.45-.17-1.83-.19-.37-.02-1.25-.21-1.41-.21-.17 0-.73-.1-.83-.17-.1-.06-1.14-.42-1.27-.46-.12-.04-.96-.4-1.06-.46-.1-.06-1.04-.67-1.23-.77-.19-.1-.77-.62-.87-.67-.1-.04-.12-.1-.29-.29-.17-.19-.69-.96-.71-1.18-.02-.21.37-.37.5-.37.12 0 .73-.08.96-.02.23.06 1.02.23 1.14.29.12.06.46.1.6.1.15 0 .25.08.31.12.06.04.77.23.91.31.15.08.81.42.96.54.15.12.96.39 1.02.48.06.08.54.33.67.37.12.04.79.35.91.48.12.12.52.37.67.46.15.08.81.6 1 .69.19.08.81.27.91.37.1.1.46.31.56.31.1 0 .71.15.71.27 0 .14-.69.06-.94.08zm16.14-1.8c-.15.09-.37.24-.42.35-.04.11-.02.44 0 .57.02.13-.22.29-.4.31-.18.02-.48 0-.66 0-.18 0-1.16-.15-1.36-.07-.2.09-.29-.09-.37-.09s-.86-.04-.97-.04-.13-.2-.44-.2-.53-.02-.66-.09c-.13-.07-.26-.18-.42-.13-.15.04-.46.15-.4.24.07.09.42.11.48.2.07.09.07.31.07.31s-.07.15-.37.18c-.31.02-.72-.02-.92 0-.2.02-.83-.04-.83-.04s0-.18-.11-.18-.4-.02-.53.04c-.13.07-.4.07-.4.07s.02-.24-.22-.22c-.24.02-.29.24-.46.22-.18-.02-.48-.11-.61-.11s-.48-.15-.46-.4c.02-.24 0-.72.07-.83.07-.11.09-.33.02-.37-.07-.04 0-.39-.09-.48-.09-.09-.44-.59-.53-.68-.09-.09-.13-.42-.04-.46.09-.04.59.07.64-.02.04-.09-.35-.33-.46-.33-.11 0-.35-.09-.35-.09s-.02-.35-.11-.53c-.09-.18-.26-.51-.42-.59-.15-.09-.66-.59-.66-.72 0-.16.07-.61.11-.75.04-.13.2-.44.2-.5 0-.07.18-.81.24-.94.07-.13.09-.53.15-.64.07-.11.15-.26.15-.35 0-.09.11-.15.18-.33.07-.18 0-.57.11-.79.11-.22.18-.37.2-.48s.07-.61.13-.81c.07-.2.18-.55.26-.77.09-.22.18-.44.29-.48.11-.04 1.01.04 1.23.11.22.07.57.15.66.15.09 0 .7.02.79 0 .09-.02.39-.04.48-.2.09-.15.31-.72.35-.86s.24-.33.33-.33c.09 0 .31.13.29.31-.02.18.04.42.04.66 0 .33.02.48.22.48s.99-.07 1.16-.11c.18-.04.59-.2.77-.26.18-.07.53-.15.53-.15s.5-.11.59-.09c.09.02.31.31.37.4.07.09.13.44.26.48.13.04.24.33.35.5.11.18.33.46.46.66s.44.57.61.7c.18.13.51.37.61.4.11.02.24.07.29.13.04.07.31.37.42.4.11.02.2.04.24.11.04.07.35.15.5.2.15.04.72.11.9.11.18 0 .22.02.26.11.04.09.18.29.18.4 0 .11-.26.35-.44.46-.18.11-.15.31-.31.39-.15.09-.77.62-.97.79-.2.18-.68.94-.75 1.05-.07.11-.42.7-.42.97 0 .26-.13.64-.11.77.02.13.09.86.18 1.08.09.22.24.55.31.75.1.16.14.36-.01.45z"/><path id="Hand" class="st1" d="M505.76 9.87c-.06-.11-.14-.35-.16-.48-.02-.13-.16-.55-.48-.37-.32.17-.99.56-1.13.71-.14.15-.75.84-.85 1.03-.13.23-.19.55-.1.65.09.1.43.09.54.18.11.09.18.39.04.53-.14.13-.95.26-1.23.18-.29-.08-.54-.45-.61-.59-.07-.14-.13-.34-.07-.38.07-.04.16-.29.16-.39 0-.11.09-.22.13-.29.05-.07.11-.37-.08-.39-.19-.02-.51.27-.57.38-.07.11-.11.34-.18.48-.07.14-.32.42-.51.48-.18.07-.57-.13-.67-.16-.1-.03-.8-.42-1.05-.59-.44-.31-.86-.62-1.25-1.32-.18-.32-.11-.46-.23-.6-.12-.14-.16-.5-.41-.57-.24-.08-.8-.34-1.13-.4-.33-.05-.85-.23-1.19-.31-.33-.08-.79-.22-.84-.25-.06-.03-.17-.14-.39-.12-.22.02-.79-.16-1.02-.21-.23-.04-.7-.39-.81-.53-.11-.13-.25-.56-.15-.76.1-.2.43-.45.75-.48.32-.03 1.03.06 1.38.11.35.05 1.19.25 1.38.33.2.08.47.23.55.18.08-.06.23.06.41.11.19.06.41.17.74.29.33.12.6.25.7.35.1.1.13.39.26.44.13.04.42-.13.43-.22.01-.09.35-.25.42-.3.07-.05.23-.25.15-.36-.08-.11-.34-.17-.5-.13-.15.05-.55-.04-.68-.1-.13-.06-.44-.19-.67-.24-.23-.06-.53-.18-.65-.22-.12-.05-.65-.2-.93-.26-.28-.07-.93-.23-1.04-.23-.11 0-.08-.08-.32-.09-.24-.01-.45-.08-.59-.08-.14 0-.57-.02-.74-.08-.16-.06-.26-.13-.18-.31.08-.18.3-.45.66-.54.36-.09 1.38-.08 1.76-.08s.91.06 1.27.13c.36.08.36.15.48.19.12.03.43-.02.59 0 .16.02.33.15.58.23.25.08.53.15.6.22.08.07.33.17.45.13.12-.04.3.11.37.19.08.08.33.18.33.31s.04.33.14.36c.1.03.35-.07.48-.2s.61-.48.58-.59c-.03-.11-.21-.17-.39-.11-.19.07-.42.11-.51.04-.09-.06-.5-.23-.56-.28-.07-.06-.37-.12-.54-.2-.16-.08-1-.25-1.12-.32-.12-.07-.18-.19-.22-.2-.04-.01-.25-.01-.32-.02-.06-.01-.32-.12-.49-.17-.18-.04-.43-.02-.58-.04-.15-.02-.25-.11-.51-.18-.25-.07-.47-.05-.51-.14-.03-.09.03-.18.3-.27.26-.09.59-.01.65-.03.06-.02.03-.14.14-.15.11-.01.39 0 .61 0 .22 0 .93.1 1.07.14.13.05.73.07.79.08.07.01.64.12.81.2.18.08.91.37 1.08.44.16.07.56.26.74.36.17.1.54.48.74.43.23-.06 1.35-.12 1.51-.18.16-.07.25-.25.39-.49.14-.23 1.35-1.42 1.44-1.49.09-.07.75-.39.83-.42.09-.03.3-.1.4-.09.1.01.55-.08.69-.13.14-.06.44-.07.58-.02.17.07.59.2.78.32.18.12.53.47.58.68.06.21.14.7-.03.89-.17.18-.62.55-.91.67-.29.12-.97.24-1.13.32-.16.08-.58.19-.74.25-.15.07-.59.58-.62.7-.03.12.08.31.2.42.12.11.4.35.39.51-.01.15.05.47.09.53.05.05.13.32.02.51-.11.18-.41.2-.56.11-.14-.09-.52-.09-.66-.05-.14.05-.78.2-1.03.46s-.44.41-.34.53c.1.11.34.13.44.01.1-.12.3-.21.41-.25.11-.05.3-.13.36-.13.07 0 .23-.08.3-.13.08-.07.3-.09.43-.08.13.01.47.14.56.27.09.12.35.18.3.69-.06.51-.26.94-.39 1.06-.11.09-.33.09-.39-.02z"/><path id="Black_Hand_Hole" d="M501.51 6.68c.15-.11.43-.34.55-.41.12-.08.46-.25.63-.19.17.06.49.21.56.35.07.13.28.39.04.77-.25.38-.68.85-.94.98-.26.13-.68.37-.87.42-.1.03-.45-.16-.54-.27-.08-.1-.29-.47-.22-.69.08-.22.56-.8.79-.96z"/><path id="Whole" class="st1" d="M502.53 6.83c.11.09.16.31.13.39-.03.08-.42.39-.49.46s-.22.21-.34.22c-.12.01-.33-.07-.34-.16-.01-.08-.11-.28.11-.51.22-.21.61-.66.93-.4z"/><path class="st1" d="M511.05 10.5c.17-.06.55.11.61.34.07.23.21 1.03.01 1.12-.2.09-.55-.24-.59-.48-.02-.24-.21-.91-.03-.98z"/><path id="Face" class="st1" d="M514.81 23.41c-.04-.18-.18-.64-.37-.79-.2-.15-.61-.42-.72-.42-.11 0-.29-.11-.35-.18-.07-.07-.29-.2-.37-.24-.09-.04-.42-.35-.53-.35-.11 0-.35-.18-.44-.24-.09-.07-.22-.29-.35-.29-.13 0-.24-.15-.42-.22s-.72-.64-.9-.86c-.18-.22-.57-1.01-.72-1.27-.15-.26-.15-.42-.15-.5 0-.09-.13-.15-.18-.22-.04-.07-.04-.48-.07-.57-.02-.09-.13-.13-.13-.35 0-.22-.11-.79 0-.88.11-.09.18-.44.2-.55.02-.11.15-.22.15-.33 0-.11.15-.31.24-.42.09-.11.24-.33.46-.35.22-.02.61.07.66.13.04.07.31.22.37.2.07-.02.2-.13.26-.13.07 0 .44-.09.57-.26.13-.18.4-.48.4-.59 0-.11.09-.37.26-.4.18-.02.5.11.75.26.24.15.72.55.81.7.09.15.29.48.37.77.09.29.22.37.26.64.04.26.24.44.4.4.13-.04.26-.37.2-.53-.07-.15-.04-.33-.13-.37-.09-.04-.09-.35-.13-.42-.04-.07-.09-.2-.15-.29-.07-.09-.29-.29-.24-.42.04-.13.26-.72.48-.88.22-.15.31-.37.37-.39.07-.02.29-.15.35-.29.07-.13.31-.11.37-.18.07-.07.09-.33.18-.42.09-.09.42-.48.48-.51.07-.02.48-.04.59-.11.11-.07.26-.24.35-.31.09-.07.4-.24.5-.26.11-.02.29-.22.42-.22s.33-.22.48-.24c.15-.02.81-.13 1.01.04.2.18.42.53.37.7-.04.18-.04.37.04.39.09.02.31-.09.42-.11.11-.02.29-.26.39-.31.11-.04.51-.22.59-.29.09-.07.46 0 .55-.09.09-.09.57-.13.88-.13s.72.07.79.18c.07.11.26.22.35.2.09-.02.48.04.57.09.09.04.55.35.68.55.13.2.4.72.44.81.04.09.29.48.22.64-.07.15-.13.42-.18.61-.04.2-.04.53-.13.7l-.42.83c-.11.22-.7.83-.81.99-.11.15-.29.31-.33.37-.04.07-.35.2-.53.31-.18.11-.53.33-.68.44-.15.11-.86.33-1.05.4-.2.07-.53.24-.59.46-.07.22.04.48.18.46.13-.02.2-.18.37-.26.18-.09.7-.31.88-.37.18-.07.66-.33.79-.37.13-.04.68-.46.88-.61.2-.15.42-.35.59-.42.18-.07 1.1-.2 1.43.04.33.24 1.1.81 1.19 1.16.09.35.35.66.35.81 0 .15.22.75.18 1.01-.04.26-.06 1.05-.2 1.47-.18.53-.53 1.32-.9 1.76-.37.44-1.54 1.58-2 1.87-.46.29-1.34.81-1.47.79-.13-.02-.15-.15-.09-.2.07-.04.46-.86.2-.92-.26-.07-.48.33-.59.53-.11.2-.9 1.05-1.49 1.41-.28.17-.4.33-.46.33-.07 0-.29-.04-.39.02-.11.07-.31.2-.4.2-.09 0-1.71.04-2.13.02-.42-.02-1.03-.37-1.14-.35-.11.02-.44-.22-.44-.22s-.66-.48-1.08-.9c-.41-.39-1.37-1.71-1.42-1.89z"/><path id="Eye_Right" d="M520.89 13.87c.15-.15.57-.42.66-.46.09-.05.44-.31.61-.39.18-.09.66-.26.75-.29.09-.02.28-.11.44-.07.16.05.37.22.44.24.07.02.15.22.15.29 0 .07.05.55-.02.68s-.39.42-.53.59c-.13.18-.39.37-.48.42-.09.05-.44-.15-.57-.17-.13-.02-.35-.07-.42-.02s-.15.4-.09.55c.07.15.24.31.26.37-.02.17-.5.55-.63.66-.13.11-.51.37-.59.37s-.59.04-.7.02c-.11-.02-.46-.35-.57-.53-.11-.17-.05-.75.09-.9.13-.15.24-.51.37-.59.13-.09.41-.48.55-.55.13-.07.28-.22.28-.22z"/><path id="Eye" d="M516.25 13.18l.29-.29c.13-.13.15-.26.37-.28.22-.02.33-.13.44-.2.11-.07.46-.46.59-.59.13-.13.35-.39.44-.42.09-.02.26-.15.26-.15s.67 0 .82.05c.22.07.57.35.59.57.05.39-.33.85-.61 1.12-.29.26-.51.44-.59.46-.17-.02-.55-.11-.68-.13-.29-.05-.35-.12-.35.18 0 .24 0 .79-.02.92s-.29.33-.44.42c-.15.09-.53.35-.61.39-.09.05-.42.13-.51.07-.09-.07-.61-.31-.59-.66.01-.36.21-1.06.6-1.46z"/><path id="mouth" d="M526.48 18.3c-.07-.13-.64-.47-.91-.51-.26-.05-.79.19-.88.26-.09.07.07.19.15.18.07-.02.38 0 .47.04.09.05.23.16.21.25-.06.17-.54.73-.85 1.11-.31.38-1.4 1.26-1.71 1.48-.31.22-.79.59-.92.6-.13.01-.53.22-.57.23-.05.01-.26.15-.38.17-.12.03-1.08.23-1.41.29-.32.06-2.46.03-2.58.03-.12 0-.73-.09-.85-.13-.12-.05-.54-.27-.64-.37-.1-.1-.41-.06-.51.12-.1.18.1.38.25.47.15.09.23.25.31.32.07.07.22.38.32.63s.69 1.17.83 1.3c.15.13.69.6.88.7.19.1.64.28.86.35.22.07.66.19.84.22.17.03.71.01.85 0 .13-.02.43-.12.61-.15.19-.03.43-.21.48-.22.06-.02.48-.18.91-.48.59-.41 1.23-1.16 1.62-1.96.16-.33.75-1.68.91-2.03.16-.35.51-1.2.6-1.42.09-.22.23-.64.28-.81.05-.16.22-.19.34-.19.12 0 .25.03.26.15.02.12.13.43.1.48-.03.06.12.25.23.25.12 0 .23-.43.27-.61.02-.18-.3-.62-.37-.75zm-3.75 5.82c-.15.15-.88.69-1.02.76-.15.07-.41.28-.45.28-.05 0-.31.05-.43.09-.12.04-.48.11-.63.13-.15.02-.43.02-.62.03-.19.01-.63-.05-.76-.1-.13-.06-.39-.15-.63-.25s-.62-.38-.76-.47c-.15-.09-.77-.63-.66-.86.15-.31.57-.28.66-.28s.09-.13.13-.15c.05-.01.29-.06.56-.04.26.01.38 0 .51.11.13.12.21.34.12.45-.09.12-.13.37-.04.38.09.01.33-.09.44-.24.1-.15.32-.32.42-.38.1-.06.57-.21.78-.25.2-.05.67-.1 1.08-.1.41 0 .67.15.84.16.16.01.35-.02.44.1.08.14.17.48.02.63z"/><path d="M512.82 33.15c-.16-.19-.65-.48-.89-.49-.34-.02-.67.36-.75.53-.08.18-.24.87-.28 1.17-.04.3.04.91.06 1.07.02.16-.02.67 0 .83.02.16.38.44.4.65.02.22.51.44.73.46.22.02.65-.3.77-.59.12-.3.28-1.11.28-1.37 0-.34.1-1.09.1-1.46-.01-.2-.23-.56-.42-.8zm5.97 1.72c-.1-.24-.38-.53-.57-.63-.16-.08-.83-.27-1.07-.3-.34-.04-.71.08-1.13.44-.42.36-.51 1.01-.53 1.29-.02.28 0 .95.06 1.21s.26 1.15.61 1.44c.36.3 1.31.4 1.72.14.32-.2.73-.75.81-.99.08-.24.3-.93.38-1.33.08-.4-.18-1.03-.28-1.27z"/><path class="st1" d="M535 48.45c-.07.13-.24.22-.2.39.05.17.11.46.09.63-.02.17-.15.5-.17.65-.02.15-.17.74-.15.91.02.17-.09.45-.17.6-.08.15-.26.54-.24.74.02.2-.15.32-.28.56-.13.24-.69 1.1-1.15 1.53-.45.43-.97.65-1.11.74-.13.09-.39.11-.56.13-.17.02-.52.05-.56.13-.05.09-.41.07-.59.07-.17 0-1.14.04-1.38.04s-.6-.13-.62-.22c-.02-.08-.28-.15-.39-.15-.11 0-.48-.15-.48-.15l-.28-.11s-.41-.39-.54-.59c-.13-.2-.33-.95-.35-1.3-.02-.35 0-.86.09-.95.09-.09.13-.41.15-.59.02-.17.39-.6.65-.93.26-.32.86-.97.99-1.06.13-.09.24-.17.24-.24 0-.07.24-.09.43-.07.2.02.33.2.46.28.13.08.65.26.78.24.13-.02.39-.07.5-.07.11 0 .3-.06.39-.13.09-.07.56-.2.65-.35.09-.15.3-.46.39-.52.09-.07.24-.24.24-.35 0-.11.2-.67-.15-.71-.35-.04-.35.41-.48.63-.13.22-.37.52-.52.56-.15.04-.26.15-.45.2-.2.04-.69.02-.91-.11-.22-.13-.63-.39-.61-.69.02-.3.09-.58.39-.58s.65.17.65.35c0 .17.09.24.17.24.09 0 .3-.26.32-.37.02-.11.13-.76.13-.91 0-.15-.09-.97-.2-1.14-.11-.17-.34-.64-.43-.76-.09-.11-.46-.28-.5-.15-.04.13-.28.28-.39.3-.11.02-.28-.15-.24-.32.05-.17.15-.37.22-.45.07-.09.48-.5.74-.56.26-.07.5-.02.69.06.19.09.6.56.69.74.09.17.2.37.3.35.11-.02.17-.24.15-.37-.02-.13-.37-.78-.49-.89-.13-.11-.2-.37-.13-.48.06-.11.32-.39.47-.43.15-.04.47-.15.58-.15.32 0 .59-.05.65.06.07.11.2.2.33.17.13-.02.22.09.28.13.07.04.32.35.43.47.11.13.39.69.5.8.11.11.28.47.37.63.09.15.22.52.2.63-.02.11.02.5.13.52.11.02.07.35.07.56 0 .22.07.39.17.43.11.04.08.41.08.56 0 .17.02.69-.04.82zm-.11-4.72c.11.04.32.26.37.39.05.13.07.37.15.41.09.04.3.39.39.47.1.1.07.37.11.59.03.17.06.69.06.84 0 .15.02.54-.32.54-.24 0-.28-.3-.26-.52.02-.22.04-.32.04-.43 0-.11-.17-.28-.2-.35-.02-.07-.15-.37-.24-.54-.09-.17-.15-.41-.22-.41s-.13-.26-.22-.41c-.09-.15-.15-.32-.26-.32-.11 0-.11-.11-.11-.26 0-.15-.15-.33-.08-.52.05-.16.47-.08.54.06.08.13.14.42.25.46zm-4.84-12.85c.23-.16.65-.34.92-.44.29-.1.94-.02 1.16.03.23.05.4.11.42.26.02.15-.05.26-.12.29-.06.03-.06.19 0 .22.07.03.32.1.37.13.05.03.21.14.34.14s.42.21.58.2c.16-.02.44.01.58.11.15.1.63.45.71.53.08.08.36.36.42.53.06.18.34.68.5.83.16.15.61.6.73.61.12.02.6.2.89.24.29.05.74.21.91.24.16.03.55.2.71.29.23.13.5.34.5.56 0 .23-.12.73-.42.86-.31.13-1.07.13-1.21.08-.14-.05-.37-.13-.52-.2-.15-.06-.32-.28-.42-.31-.09-.03-.47-.13-.58-.18-.11-.05-.32-.21-.5-.11-.18.09-.44.5-.61.64-.18.15-.55.58-.67.61-.11.03-.6.21-.66.34-.06.13-.03.44.1.61.13.18.39.73.55.95.16.23.47.84.55 1.02.08.17.2.63.07.87s-.58.71-1 .61c-.42-.1-.82-.56-.9-.76-.08-.19-.13-.58-.23-.66-.1-.08-.18-.39-.21-.5-.03-.11-.16-.44-.21-.53-.05-.1-.14-.4-.14-.4s-.1-.29-.12-.42c-.01-.13-.16-.28-.28-.34-.11-.06-.32-.18-.45-.14-.13.03-.6.13-.71.08-.12-.05-.32-.03-.42.11-.1.15-.32.4-.39.55-.07.15-.11.63-.1.81.02.18-.13.92-.15 1.12-.02.19-.26.64-.4.71-.14.06-.58.16-.79-.02-.21-.18-.4-.48-.47-.53-.07-.05-.07-.48-.15-.55-.08-.07-.03-.4-.08-.53s.03-.31.08-.49.1-.6.11-.71c.02-.11.08-.37.18-.47.1-.1.24-.53.36-.71.12-.18.34-.37.32-.53-.02-.16 0-.5-.1-.56-.1-.07-.28-.44-.31-.58-.03-.15-.18-.52-.26-.57-.08-.05-.39-.32-.56-.32-.18 0-.53-.08-.68-.13-.15-.05-.56-.37-.68-.49-.11-.11-.28-.52-.29-.69-.02-.18-.2-.68-.12-.84.08-.16.28-.48.39-.63.11-.15.26-.52.48-.53.23-.02.5.23.55.36.05.13.05.45.15.55.1.1.2.25.28.37.13.21.5.42.87.32.37-.1.57-.45.71-.56.15-.12.53-.5.66-.55.13-.05.34-.29.12-.34-.23-.05-.36 0-.44-.05-.06-.02-.14-.25.08-.41zM514 55.4c-.31.29-.97.41-1.03.57-.07.15-.48-.13-.64-.09-.15.05-.51-.07-.66-.07-.15 0-.79-.11-.99-.26-.2-.15-1.62-.94-1.82-1.1-.2-.15-1.95-1.34-2.08-1.45-.13-.11-.57-.53-.77-.61-.2-.09-1.08-.79-1.34-.94-.26-.15-1.34-.83-1.47-.92-.13-.09-.53-.31-.59-.27-.07.05-.31 0-.31 0l-.33-.2s-.15-.11-.26-.06c-.11.04-.26 0-.28-.07-.02-.07-.62-.2-.81-.2-.2 0-.73.07-.86.07s-.57.04-.68-.05c-.11-.09-.15-.24-.09-.48s.35-.7.59-.94.5-.51.61-.53c.11-.02.53-.13.59-.22.07-.09.15-.24.27-.24.11 0 .72 0 1.01.02.29.02.64.13.77.15.13.02.81.29 1.01.37.2.09.55.22.7.31.15.09.94.46 1.05.59.11.13 1.21.97 1.49 1.19.29.22.7.4.7.46s.31.2.31.2l.26.22s.33.2.4.2.2.04.22.11c.02.07.33.42.46.51.13.09.68.51.81.57.13.07.33.11.35 0 .02-.11 0-.33-.11-.39-.11-.07-.46-.44-.55-.55-.09-.11-.07-.31 0-.37.14-.14.77-.07.99-.04.22.02.99.26 1.21.35.22.09.75.44.92.53.17.09.53.7.42 1.01-.11.31-.37.24-.53.2-.16-.05-.48-.13-.48-.13s-.33-.22-.35-.11c-.02.11-.11.42.07.51.18.09.66.44.83.44.18 0 .57.31.68.37.11.07.38.3.44.4.13.22.18.65-.13.94z"/><path d="M530.91 32.14c.21-.03.39.24.4.42.01.18.11.69.08.78-.03.08-.1.34-.13.52s-.2.53-.4.52c-.21-.01-.29-.19-.29-.19s-.21-.23-.14-.37c.06-.15.21-.44.21-.66 0-.24-.08-.97.27-1.02zm1.36-.11c.27-.07.47.44.48.64.02.21.05 1.04 0 1.1-.05.06-.21.45-.32.44-.12-.02-.45-.18-.48-.36-.03-.18.05-.61.05-.76 0-.15-.05-.77 0-.86.04-.07.21-.18.27-.2zm1.13-.05c.11-.02.28.08.32.18.05.1.14.55.13.69-.02.15.05.88.05.88s0 .16-.13.23c-.13.06-.5-.15-.5-.24 0-.1-.02-.69 0-.82.02-.14-.06-.89.13-.92z"/><path class="st1" d="M512.24 35.44c.02.14.18.22.2.41.02.2 0 .44-.1.58-.1.14-.22.22-.4.22-.18 0-.43-.24-.47-.36-.04-.12-.02-.52-.1-.59-.08-.08-.2-.16-.16-.34.04-.18.14-.75.2-.91.06-.16.04-.39.06-.59.02-.2.18-.53.44-.55.3-.02.4.2.47.3.08.1-.04.46 0 .59.04.14.08.28.12.46.04.18.02.41-.06.51-.08.1-.22.14-.2.27zm6.03 1.01c-.1.36-.36.99-.49 1.11-.14.12-.63.26-.91.14s-.63-.61-.71-1.01c-.08-.39-.08-.75-.08-.85 0-.1.02-.53.24-.79.24-.28.53-.45.87-.45.24 0 .49.08.6.22.1.14.33.58.41.75.07.17.18.53.07.88z"/><path d="M517.38 55.07c.08-.15.2-.11.26-.07.06.04.42.14.47.18.06.04.37.26.47.33.11.07.31.3.31.3s-.36.08-.44.05c-.08-.04-.42-.14-.51-.2-.08-.06-.59-.52-.56-.59z"/><path id="Bottom_Foot" class="st1" d="M533.36 55.51c-.15.09-.31.33-.31.44 0 .11-.31.31-.48.33-.17.02-.22.17-.33.2-.11.02-.33.02-.37.09-.05.07-.44.05-.53.16-.09.11-.37.15-.53.15-.15 0-.44.15-1.03.15-.37 0-.77.09-.92.07-.15-.02-.7.02-.7.02s-.06-.22-.17-.22c-.11 0-1.1 0-1.27-.02-.18-.02-.22-.2-.31-.2s-.37-.22-.53-.33c-.15-.11-.37-.46-.17-.77.07-.1.22-.15.35-.11.13.04.59.13.68.2.09.07.35.18.51.2.15.02.9.13 1.1.15.2.02 1.32.13 1.69.11.37-.02.61-.15.75-.17.13-.02.61.02.75 0 .13-.02.46-.29.63-.39.18-.11.62-.48.77-.59.15-.11.57-.48.66-.59.09-.11.46-.31.42-.07-.05.24-.31.53-.29.66.01.11-.21.44-.37.53z"/></g><g id="Layer_2"><path class="st0" d="M205.17 33.67l2.55-5.19 2.58 5.19h-5.13zm-4.13 8.59l3.05-6.21h7.27l3.08 6.21 2.58-.53-9.19-18.38h-.05l-9.16 18.38 2.42.53zm20.41-.11v-18.8h.05l11.59 12.64v-11.8l2.58-.42v18.48h-.05l-11.59-12.64v12.22l-2.58.32zm19.62-.1V23.77l2.58-.42v18.49l-2.58.21zm7.16-.21l3.66-18.49h.05l6.24 13.77 6.16-13.77h.05l3.69 18.49-2.5.32-2.19-11.43h-.05l-5.13 11.32h-.05l-5.27-11.32h-.05l-2.13 11.43-2.48-.32zm29.47-8.17l2.55-5.19 2.58 5.19h-5.13zm-4.14 8.59l3.05-6.21h7.27l3.08 6.21 2.58-.53-9.19-18.38h-.05l-9.16 18.38 2.42.53zm18.59-16.12l.82-2.37h10.67v2.37h-4.21v15.69l-2.58.32V26.14h-4.7zm16.62 15.91V23.77l2.58-.42v18.49l-2.58.21zm9.66-9.25c0-3.77 3.11-7.08 6.9-7.08 3.79 0 6.9 3.32 6.9 7.08 0 3.77-3.11 7.08-6.9 7.08-3.79.01-6.9-3.31-6.9-7.08zm-2.58 0c0 5.32 4.27 9.45 9.48 9.45 5.21 0 9.48-4.13 9.48-9.45 0-5.32-4.27-9.45-9.48-9.45-5.21 0-9.48 4.13-9.48 9.45zm24.05 9.35v-18.8h.05l11.59 12.64v-11.8l2.58-.42v18.48h-.05l-11.59-12.64v12.22l-2.58.32zm29.7-4.4c.74 1.16 2 2.13 3.45 2.13 1.9 0 3.29-.92 3.29-3.16 0-4.19-8.27-1.9-8.27-8.24 0-3.19 2.29-5.14 5.56-5.14 2 0 3.9 1.05 5.08 2.63l-1.74 1.74c-.97-1.03-1.98-2-3.48-2-1.66 0-2.84 1.05-2.84 2.77 0 3.71 8.27 2.03 8.27 8.27 0 3.21-2.48 5.5-5.61 5.5-2.48 0-3.98-1.18-5.61-2.92l1.9-1.58zm12.32-11.61l.82-2.37h10.67v2.37h-4.21v15.69l-2.58.32V26.14h-4.7zm28.36-2.79v11.51c0 5.56-1.79 7.4-6.35 7.4-4.98 0-6.42-2.21-6.42-7.4V23.77l2.58-.42v12.88c0 2.32 1.34 3.66 3.63 3.66 2.21 0 3.98-1 3.98-3.66V23.77l2.58-.42zm8.06 2.79h1.92c3.05 0 6.53 2.53 6.53 6.66 0 4.13-3.48 6.66-6.53 6.66h-1.92V26.14zm-2.58 15.7h4.5c5.48 0 9.11-4.37 9.11-9.03 0-4.66-3.63-9.03-9.11-9.03h-4.5v18.06zm19.17.21V23.77l2.58-.42v18.49l-2.58.21zm9.67-9.25c0-3.77 3.11-7.08 6.9-7.08 3.79 0 6.9 3.32 6.9 7.08 0 3.77-3.11 7.08-6.9 7.08-3.8.01-6.9-3.31-6.9-7.08zm-2.58 0c0 5.32 4.27 9.45 9.48 9.45 5.21 0 9.48-4.13 9.48-9.45 0-5.32-4.27-9.45-9.48-9.45-5.22 0-9.48 4.13-9.48 9.45zm25.17 4.95c.74 1.16 2 2.13 3.45 2.13 1.9 0 3.29-.92 3.29-3.16 0-4.19-8.27-1.9-8.27-8.24 0-3.19 2.29-5.14 5.56-5.14 2 0 3.9 1.05 5.08 2.63l-1.74 1.74c-.97-1.03-1.97-2-3.48-2-1.66 0-2.84 1.05-2.84 2.77 0 3.71 8.27 2.03 8.27 8.27 0 3.21-2.47 5.5-5.61 5.5-2.48 0-3.98-1.18-5.61-2.92l1.9-1.58z"/><path class="st1" d="M131.27 13.43c.09-.12.42-1 .33-1.39-.08-.4.05-.73-.1-1.13-.15-.39-.2-.44-.23-.6-.03-.16-.16-.56-.45-1-.29-.44-.3-.58-.54-.78-.24-.21-.48-.29-.86-.42s-.43-.08-.8-.19c-.38-.11-.57-.17-.75-.12-.19.05-.19.03-.4.08-.21.05-.26.06-.51.18-.26.13-.18.24-.53.2-.35-.04-.64-.21-.89.17s-.36.51-.52.58c-.16.07-.25.13-.3.2-.04.07-.13.17-.18.17-.12 0-.29-.06-.38-.04-.09.03-.14.12-.14.12s-.07.1-.21.05c-.14-.04-.26-.13-.4-.13s-.21.05-.44.06c-.23.01-.56.04-.7.04-.14.01-.4.04-.47.11-.07.07-.14.12-.28.13-.14 0-.14-.04-.33.01s-.14.14-.25.17c-.12.03-.09.05-.21.05s-.44.13-.44.13-.05.07-.23.12c-.19.05-.53.16-.53.25s.03.17-.18.22c-.21.05-.54.11-.6.21a.58.58 0 01-.32.22c-.14.03-.23.03-.25.13-.02.09-.91.97-1.02 1.21-.11.24-.25.38-.24.48 0 .1-.02.17-.09.24-.07.07-.29.48-.28.74.01.26.04.52.05.89.01.38-.02.82.08 1.03.1.21.08.21.15.47.08.26.07.54.24.77.17.23.3.46.39.48.09.02.21.02.28.11.07.09.15.16.15.26 0 .09.01.23.08.18.07-.05.29.13.22.32-.06.19.03.28.1.21.07-.07.13-.21.21-.1.07.12.14.09.21.06.07-.02.37-.08.52.08.15.16.2.3.34.29.14 0 .28-.08.35.01.07.09.29.3.43.36.14.07.05.04.29.22s.21.04.29.34c.08.3.18.39.18.39s.22.16.24.23c.02.07.03.19.15.18.12 0 .17.13.22.3.05.17-.11.1.37.46s.67.45.62.29c-.05-.16-.1-.35-.2-.44-.1-.09-.13-.28-.25-.39-.12-.11-.05-.21-.15-.25-.1-.05-.07.02-.14-.09s-.01-.33.01-.42c.02-.09.06-.35.15-.36.09 0 .31.08.38.15.07.07.19.13.28.11.09-.03.23-.03.33-.01.09.02.14.07.31.04.16-.03.28-.03.25-.12-.03-.09-.17-.14-.08-.19.09-.05.14-.1.21-.12.07-.03.44-.16.61-.02.17.14.38.25.52.17.14-.07.37-.13.51-.11.14.02.26.02.38.04s.31-.01.3-.1c0-.09.11-.29.22-.36.12-.07.32-.2.42-.18.1.02.28.04.35-.03.07-.07.14-.12.25-.12.12 0 .24.06.23-.1 0-.17.23-.22.29-.36.07-.14.09-.12.25-.22s.45-.44.55-.56c.09-.12.23-.17.23-.17s.02-.17-.01-.24c-.03-.07-.33-.11-.1-.25.23-.15.16-.19.34-.32.18-.12.09-.05.44-.34.34-.29.68-.65.89-.99.2-.33.5-.51.47-.67-.03-.16-.12-.11.1-.5.22-.38.27-.38.27-.5-.02-.11-.14-.16-.05-.28zm-9.15-1.29c-.02.1-.16.29-.24.5-.09.21-.22.45-.24.62-.02.16-.11.21-.18.26-.07.05-.16.17-.18.29-.02.12-.08.4-.19.59-.11.19-.15.4-.17.52-.02.12-.09.26-.15.45-.07.19-.24.55-.33.78-.09.24-.15.43-.24.45-.09.03-.15-.21-.15-.21s-.05-.28-.04-.63c.01-.35-.02-.58-.02-.58s-.01-.19-.03-.28c-.03-.09-.03-.35.03-.54.06-.19-.01-.3-.08-.32-.07-.02-.06-.33-.04-.54.02-.21.18-.38.31-.55.14-.17.23-.12.32-.2.09-.07-.01-.45-.04-.59-.03-.14.09-.19.18-.33s.09-.19.25-.24c.16-.05.19-.08.25-.2.07-.12.34-.25.48-.39.14-.14.14-.03.26-.01.12.02.12-.05.16-.12.04-.07.09-.12.21-.1.12.02.14-.15.18-.22.04-.07.28.01.4.01s.25-.34.36-.39c.12-.05.23-.1.28-.03.05.07-.09.21-.09.21s-.25.17-.32.25c-.07.07-.18.29-.18.29s-.15.33-.31.45-.29.48-.38.55c-.1.09-.05.15-.07.25zm8.37.5c-.13.38-.08.36-.12.64-.04.28-.08.38-.15.5-.07.12-.13.33-.25.38-.12.05-.34.22-.43.39-.09.17-.06.21-.27.41-.21.19-.32.39-.31.46 0 .07.07.14-.06.24-.14.1-.3.27-.43.46s-.16.05-.34.27c-.18.22-.08.36-.43.53-.35.18-.41.32-.53.37-.12.05-.26.03-.28.1-.02.07-.16.26-.36.36-.21.1-.39.25-.53.39s-.07.12-.42.18-.58.06-.77.09c-.19.03-.37.1-.39.17-.02.07-.04.14-.2.22-.16.08-.25.15-.28.08-.03-.07-.17-.16-.21-.06-.05.09-.44.11-.54.13-.09.02-.35.01-.44.08-.09.07-.28-.06-.29-.13 0-.07-.03-.3-.02-.49.02-.19-.04-.68.15-1.18.2-.5.41-1.07.41-1.19 0-.12.04-.1.13-.26.09-.17.12-.47.21-.74.09-.26.2-.55.29-.64.09-.1.18-.26.27-.57.08-.31.11-.35.22-.5.11-.14.18-.38.24-.59.06-.21.02-.23.18-.4s.3-.27.29-.45c-.01-.19.03.07.28-.22.16-.1.3-.15.44-.11.14.04.28.06.38.04.09-.03.09 0 .19-.03.09-.03.2-.19.2-.19s.09-.12.21-.17c.12-.05.23-.24.23-.24s.09-.14-.03-.14-.17-.04-.24-.11a.947.947 0 00-.29-.18c-.1-.04-.15-.21-.03-.33.11-.12.28-.2.29-.36.02-.17 0-.19.23-.24.23-.05.4.06.42-.11.02-.17-.12-.23.11-.36.23-.12.34-.24.44-.29.09-.05.12-.07.35-.04.24.04.45.03.52.01.07-.03.07-.14.3-.06.24.09.59.22.67.36.07.14.1.25.22.32s.22.16.27.32c.05.16.03.33.13.37.09.04.21.11.19.23-.02.12.05.16.08.42s.01.47.11.63c.1.16.14.04.15.3-.02.24-.03.54-.16.93zM24.05 2.18c.11-.04-.15-.14-.17-.16-.03-.02-.03-.1-.05-.14-.02-.04-.08-.04-.09-.07a.683.683 0 01-.04-.13c0-.06.01-.15.01-.24 0-.08.01-.17.06-.2.05-.03.21-.06.26-.12.05-.07.09-.17.09-.17.08.01.25.01.25.01s.05-.1.1-.08c.05.01.15.06.28.06.13 0 .3-.06.35.06.05.11.12.18.22.17.1 0 .13-.02.2.06s-.01.13.26.26c.27.12.86.5 1.11.68.25.17.32.22.42.25.1.03.12.08.12.13s.02.1.09.14c.07.05.18.03.18.08s.09.18.09.18l.15.03v.08s.04.16.09.21c.05.05.14.13.19.14.05.02.18 0 .18.04 0 .05.16.34.31.49.15.14.36.36.59.63.23.27.21.42.34.46.13.05.23.04.25.19.03.15.16.44.34.61.18.17.47.56.5.66.03.1.03.2.11.25.08.05.18.12.18.19s.1.15.1.15.2.04.18.12c-.02.08.04.42.04.42s.19-.13.25-.06c.05.07 0 .15.03.22s.1.12.1.12.15.05.18.17c.03.12.29.56.47.8s.49.66.49.66.1.15.11.22c0 .07.08.17.08.17l.28.36s.08.35.29.66c.21.32.36.56.44.63.08.07.21.24.16.34-.05.1-.07.13.01.25s.39.76.47.9c.08.15.18.32.21.52s-.06.38.06.42c.13.05.31.41.37.58.05.17.14.47.19.59.05.12.1.12.08.27-.02.15.11.32.11.32s.3.89.36 1.16c.06.27.29.69.32.86.03.17-.07.2.01.47.08.27.32.61.35.81.03.2.09.47.12.54.03.08.1.74.15.94.06.2.16.34.16.52 0 .17.13 1.04.14 1.38.01.35.05.77.05.77s.1.05.06.2c-.05.15.05.69.03.92-.02.22-.11.42-.11.5 0 .08.11.44.07.64-.04.2-.06.42-.06.57.01.15.02.72-.02.94-.04.23-.09.45-.09.45s-.09.23-.08.47c.01.25.09.49-.01.52-.1.03-.07.1-.07.2s-.02.35-.01.5c0 .15.02.5-.03.62s-.12.13-.12.3c.01.22 0 .67-.09 1.02s-.11.55-.28 1.3c-.18.75-.36 1.28-.35 1.4 0 .12-.09.38-.13.5-.05.12-.26.48-.23.6-.15.1-.22.2-.33.51-.11.3-.2.68-.2.82-.09.18-.21.48-.25.71-.04.22-.01.35-.2.65-.19.3-.64.91-.76 1.24-.11.32-.21.43-.26.55-.05.13-.22.23-.43.49-.22.25-.31.38-.36.53-.04.15-.26.48-.77.92-.51.44-.85.75-1.06 1.2-.21.45-.06.38-.5.68-.44.31-.66.34-.71.42-.03.07-.03.22-.59.49-.56.26-.64.21-.84.3-.19.08-.27.03-.46.21s-.55.59-.77.67c-.22.08-.3.06-.62.07-.32.01-.59.07-1.09.18-.49.12-.81.2-.99.23-.17.03-.37.11-.44.09-.07-.02-.13-.12-.23-.12s-.52-.04-.77-.08-.57-.06-.87-.12c-.3-.07-.48-.19-.6-.21-.12-.02-.25-.19-.25-.19s0-.05-.13-.04c-.12 0-.4-.06-.52-.06s-.08-.05-.3-.14c-.23-.09-.33-.26-.33-.26s0-.07-.13-.07c-.12 0-.07 0-.15-.07-.08-.07-.2-.17-.28-.21-.08-.05-.2-.1-.28-.09-.07 0-.25.03-.53-.18-.28-.22-.54-.53-.69-.6-.15-.07-.1-.1-.3-.16-.2-.07-.22-.05-.48-.36-.26-.32-.48-.43-.56-.55-.08-.12-.3-.19-.38-.36-.08-.17-.19-.42-.27-.59-.08-.17-.18-.24-.23-.32-.05-.07-.16-.22-.4-.16-.25.05-.49.06-.74.17-.24.11-.49.24-.61.36-.12.13 0 .15-.29.18-.3.04-.49.04-.76.22s-.54.36-.66.37c-.12.01-.08-.1-.15-.14-.08-.05-.25-.06-.25-.06l-.32.16s-.02.22-.19.23c-.17 0-.3-.02-.45.04-.15.05-.44.06-.47-.01a.514.514 0 00-.33-.24c-.15-.02-.52.02-.64.19-.12.18-.17.18-.27.11-.1-.07-.05-.17-.38-.21-.32-.04-.45-.11-.45-.11l.02-.1s-.12-.05-.33-.16c-.2-.12-.38-.29-.5-.23-.12.05-.27.11-.35.06a.953.953 0 00-.43-.24c-.2-.04-.5-.06-.5-.06s-.2-.19-.11-.29c.1-.1.22-.26.14-.23-.13-.07-.48-.16-.48-.16s-.3-.04-.22.08c.08.12.06.35-.15.08-.21-.27-.49-.58-.59-.63a.714.714 0 01-.25-.24c-.08-.1-.88-1.04-1.29-1.67-.42-.63-1-1.21-1.17-1.68-.16-.47-.33-.91-.43-1.13-.11-.22-.17-.56-.27-.61-.1-.04-.08-.15-.24-.63-.16-.49-.36-1.11-.34-1.38.02-.27.02-1.04-.02-1.39-.03-.35-.18-.94-.14-1.23.04-.3.11-.57.11-.57l.07-.08s.02-.2.03-.75c.01-.54.1-.7.12-.95.03-.25.07-.55.09-.65.02-.1.12-.2.12-.2.04-.4.05-.97.09-1.12.05-.15.11-.45.13-.52.02-.08.19-.18.19-.18s.05-.1.07-.23c.02-.12-.01-.32-.01-.42 0-.1.07-.3.11-.38.05-.08.1-.13.17-.13.08 0 .2-.03.2-.03.02-.15-.01-.45-.01-.45l-.08-.14s.17-.23.21-.35c.05-.12.12-.23.12-.23s.02-.32.04-.45c.02-.12.16-.5.25-.7.09-.2.11-.4.11-.55 0-.15-.01-.27.09-.35.1-.08.29-.33.38-.68.09-.35.23-.58.3-.63.24-.28.07-.05.07-.05s.43-.63.64-.91c.21-.28.39-.36.4-.61.02-.25.09-.25.26-.5s.55-.81.64-.99c.09-.18.23-.43.45-.66.22-.23.34-.33.36-.41.02-.08.07-.25.07-.25s.17-.2.6-.56c.44-.36.63-.57.7-.74.07-.18.24-.18.36-.34.12-.15.72-.69 1.16-1.15.43-.46.51-.44.51-.44s.05-.08.12-.18c.07-.1.58-.44.75-.52.17-.08.24-.18.24-.18s-.12 0 .17-.18c.29-.18.56-.32.88-.45.32-.13.64-.27.81-.37.17-.11.55-.02.77-.1.2-.07.4-.15.45-.23.05-.08.07-.18.32-.18.25-.01.32-.03.42-.14.1-.1.19-.2.32-.18.12.02.48.21.58.23.1.02.43.16.55.03.12-.13.29-.21.39-.21.1 0 .28.19.35.19-.02.15.05.17.08.25.03.07-.05.1-.09.2-.05.1-.2.11-.27.08-.08-.02-.12.05-.22.13s-.17.08-.29.11c-.12.03-.22.06-.52.12-.3.06-.67.07-.89.23-.22.16-.36.33-.51.36-.15.03-.27.08-.34.26s-.19.2-.27.23c-.07.03-.15.08-.19.16-.05.08-.05.15-.2.05-.15-.09-.33-.09-.32.01 0 .1-.04.4-.13.47-.1.08-.41.31-.56.41-.15.1-.31.28-.31.36-.29.28-.89.87-.99.97-.1.1-.24.21-.32.26a.65.65 0 00-.21.33c-.05.15-.27.21-.46.41-.19.2-.48.68-.54.93-.07.25-.19.25-.26.4-.07.15-.09.25-.4.66-.31.41-.46.41-.5.54-.05.12.01.2-.09.27-.1.08-.22.11-.24.18-.02.07-.16.48-.11.55-.12.2-.25.65-.44.93s-.31.41-.46.56c-.14.16-.23.65-.27.85-.04.2-.11.4-.21.53-.09.13-.26.3-.31.46-.04.15-.11.38-.15.62-.04.25-.01.62-.13.77-.12.15-.33.41-.38.56-.05.15-.09.23-.14.4-.04.17-.04.27-.11.42-.07.15-.18.63-.17.85.01.22-.09.27-.11.4-.02.12-.08.55-.1.72-.02.17-.04.4-.16.43-.12.03-.17.11-.17.11-.02.25.01.27-.07 1.07s-.02 1.86-.06 2.09c-.04.23.08.2.06.35-.02.15-.02.94-.13 1.34-.11.4-.13.58-.15.8-.02.23.12.79.22 1.44.09.64.25.86.25.98s.02.47.12.79c.11.32.19.62.33.96.14.34.34.69.37.83.03.15.14.46.22.54.08.07.2.12.23.24s.14.57.29.63c.15.07.2.19.2.19s.28.29.46.38c.18.09.4.23.46.36 0 0 .28.19.31.31 0 0 .32-.04.4.06.08.1.23.12.3.17.08.05.28.09.38.18.1.1.33.12.45.11.12 0 .55.23.7.2.15-.03.4.01.55.03.15.02.27-.03.47-.11.2-.08.52-.14.76-.17.25-.03.69-.1.98-.3.29-.21.58-.59.68-.54.1.05.27-.08.34-.16s.34-.26.51-.34c.17-.08.56-.19.46-.39-.11-.2-.19-.42-.22-.56-.03-.15-.12-.74-.18-.96-.06-.22-.19-.49-.22-.62-.03-.12-.16-.37-.16-.49s-.06-.27.02-.27c.07 0 .17-.13.12-.2-.05-.08-.13-.2-.16-.27s-.09-.44-.1-.72c-.01-.27.01-.62-.1-.77-.1-.14-.16-.34-.14-.46.02-.12.17-.16.13-.58-.04-.42-.06-1.29-.04-1.44.02-.15.09-.15.12-.28.02-.13.03-.6.02-.92-.01-.32-.07-.62-.02-.72.05-.1.13-.45.13-.45s.18-.65.24-1.1c.06-.45.22-1 .31-1.23.09-.23.23-.58.23-.65 0-.07.02-.3.09-.43.07-.12.33-.48.38-.68.04-.2.11-.3.09-.4-.03-.1-.03-.3.11-.45.14-.15.26-.5.3-.65.04-.15.11-.43.11-.43s0-.02.14-.15c.15-.13.31-.46.5-.76s.52-.88.9-1.29c.38-.41.84-.77.99-.88.14-.1.32-.18.36-.28.05-.1.14-.13.22-.15.07-.03.22-.11.29-.16.07-.05.1.02.22-.06s.32-.18.36-.26c.05-.08.2-.05.3-.06.1 0 .42.01.5.04.08.02.03.2.15.14.12-.05.19-.13.27-.16.07-.03.37-.04.72.05s.53.16.72.13c.2-.03.33.09.4.21.08.12.28.29.28.29s.28.09.21.32c-.07.23.04.5.09.59.05.1.26.39.17.62-.09.22-.02 1.64-.03 2.21-.01.57-.03 1.32-.12 1.84-.08.53-.2.88-.17.95.03.07-.12.08-.09.28s-.06.42-.13.62-.03.5-.05.65c-.02.15-.34 1.03-.41 1.25-.07.22-.46 1.08-.53 1.38-.06.3-.13.42-.23.58-.09.15-.35.78-.49 1.08-.14.3-.18.6-.3.88s-.26.5-.35.63c-.1.13-.14.28-.14.35 0 .07-.04.18-.12.28-.07.1-.33.46-.31.58.03.12-.02.25-.11.3s-.38.56-.43.66c-.05.1-.14.25-.19.33-.05.08-.16.58-.32.73-.17.15-.42.21-.51.41-.09.2-.45.63-.47.73-.02.1-.09.18-.01.35.08.17.29.46.32.64.03.17.09.45.27.74.18.29.43.38.44.56.01.17.02.55.15.71.13.17.26.41.34.44.07.02.27.02.35.14.08.12.44.61.7.9.26.29.38.29.56.46.18.17.59.5.61.62.03.12.28.21.28.21s.27.04.35.12c.08.07.1.17.25.16.15 0 .62.03.79.03.17-.01.3.07.5.09.2.02.69 0 .89-.03.2-.03.62-.09.81-.22.19-.13.39-.28.56-.29.17 0 .37-.09.44-.19s.24-.25.58-.39c.34-.13.37-.16.95-.55s.48-.46.67-.72c.19-.25.23-.45.41-.48.17-.03.3-.06.37-.16s.14-.23.22-.25c.07-.03.14-.15.19-.23.05-.08.22-.18.29-.18.08 0 .15.04.2-.05.05-.1.37-.76.42-.86.05-.1.14-.15.22-.23.07-.08.24-.13.29-.23.05-.1.02-.2.09-.28.07-.08.27-.13.45-.61s.3-.61.63-1.29.45-.81.46-1.08c.02-.28-.03-.3.14-.4.17-.11.29-.21.36-.56.06-.35.08-.6.15-.72.07-.12.11-.32.19-.4.07-.08.22-.23.21-.38 0-.15-.04-.59.05-.82.09-.22.31-.36.38-.56.07-.2.18-.55.14-.97-.04-.42.04-.4.13-.65s.06-.42.2-.75.14-.95.07-1.07c-.08-.12-.11-.27-.01-.35.1-.08.19-.31.19-.31s-.02.03.09-.17c.12-.2.11-.38.13-.5.02-.12.04-.35.03-.57-.01-.22.01-.52.08-.6.07-.08.12-.15.22-.25s0-.08-.03-.15c-.03-.07.05-.67 0-.97-.06-.3-.14-.67-.12-.79.02-.13.08-.75-.01-1.22s-.21-1.04-.19-1.48c.01-.45.03-1.32-.07-1.61-.11-.29-.17-.61-.24-.66-.08-.05-.08-.07-.08-.27-.01-.2-.12-.82-.18-.94-.05-.12-.06-.17-.13-.19a.156.156 0 01-.1-.2c.02-.1-.03-.1-.06-.27s-.08-.22-.08-.29c0-.07-.12-.57-.17-.79-.06-.22-.21-.34-.24-.49a7.26 7.26 0 00-.28-.91c-.11-.27-.16-.42-.19-.54-.03-.13-.2-.96-.33-1.18-.13-.22-.01-.32-.14-.52s-.16-.22-.33-.34c-.18-.12-.33-.36-.29-.49.05-.13.07-.25-.17-.56-.23-.32-.29-.59-.34-.71-.05-.12-.1-.2-.21-.29-.1-.1-.2-.19-.21-.39-.01-.2-.24-.64-.37-.83-.13-.19-.23-.29-.31-.34-.08-.05-.18-.07-.18-.24 0-.18.06-.52.01-.62-.05-.1-.1-.07-.18-.09-.08-.02-.22-.02-.23-.12 0-.1-.06-.42-.17-.54-.1-.12-.15-.2-.28-.29-.13-.1-.31-.51-.49-.68-.18-.17-.3-.24-.36-.31-.05-.07-.11-.24-.11-.24s-.21-.34-.41-.51c-.2-.17-.41-.36-.41-.36s-.15-.2-.23-.32c-.08-.12-.15-.02-.21-.19s-.14-.37-.32-.58c-.18-.23-.38-.3-.51-.42s-.23-.14-.23-.24c0-.1-.18-.19-.18-.19l-.33-.19s-.23-.07-.35-.16c-.13-.09-.2-.17-.28-.26-.08-.1-.2-.14-.25-.14-.05 0-.17.03-.22-.04-.06-.08-.14-.13-.26-.1s-.12.08-.2.01c-.08-.07-.1-.12-.25-.09s-.2.08-.22.16c-.02.06-.09.41-.18.3zm-3.02 19.64s-.22.27-.35.51c-.12.24-.28.6-.38.67-.1.07-.25.37-.28.5-.03.13-.18.5-.24.7-.06.2-.32.41-.38.51-.06.1-.22.44-.36 1.14-.14.7-.66 2.37-.78 2.7-.12.34-.33 1.2-.35 1.53-.02.33-.15.47-.14.73.01.26-.15.47-.21.67-.06.2-.05.66.03.93.07.26-.09.33-.18.54-.09.2-.02.6.02.73s-.19.4-.18.53c0 .13.08.43.15.59.07.16.08.36.14.23.06-.13.19-.27.25-.37.06-.1.13-.24.13-.24s.09-.24.26-.3c.16-.07.09-.27.18-.44.09-.17.31-.54.34-.67.03-.13.15-.37.29-.41.13-.04.22-.27.22-.44-.01-.16.02-.4.15-.54.13-.13.12-.27.15-.4s.06-.2.19-.24c.13-.04.19-.3.31-.64.12-.33.21-.6.21-.6s-.01-.2.09-.27c.1-.07.13-.17.12-.27 0-.1.06-.3.06-.3s.09-.37.22-.47c.13-.1.22-.3.28-.7.05-.4.18-.63.21-.77.03-.13.12-.47.11-.6 0-.13.05-.43.08-.6.03-.17.09-.3.05-.4-.04-.1.03-.23.03-.23s.16-.17.19-.37c.03-.2.08-.63.1-.96.02-.33.01-.6-.02-.73-.04-.13.02-.4.12-.43.1-.04.02-.3.02-.3s-.17-.26-.14-.39-.14-.29-.24-.32l-.47.19zm15.99 12.12s.24.19.48.42c.24.22.3.19.41.29.1.1.24.19.44.28.2.09.47.09.7.08.23-.01.36-.28.35-.44 0-.17.13-.2.32-.28.2-.07.12-.23.15-.33s.12-.3.22-.4c.1-.1-.01-.46.02-.56.03-.1.22-.47.31-.64.09-.17.18-.73.23-1.03.06-.3.05-.43.15-.5.1-.07.19-.34.18-.47 0-.13.02-.33.15-.4s.19-.4.21-.6c.03-.2.31-.67.31-.8s.12-.3.29-.34c.16-.04.16-.14.22-.27s.15-.47.15-.6.16-.3.28-.47c.13-.17.22-.41.28-.6.06-.2.16-.17.25-.34s.16-.3.15-.4c0 0 .1-.07.23-.17s.03-.13.12-.27c.1-.14.44-.68.63-1.11.19-.44.35-.31.72-.35.36-.04.33.02.47.09.13.06.24.19.54.28.3.09.34.16.34.16s.1.16.2.16.13.06.24.22c.1.16.17.16.27.19s.07.26.18.56c.11.29.17 1.19.18 1.42.01.23.23 1.02.3 1.31.08.3.25.66.32.78.07.13.01.26.01.26s.04.26.08.39.18.36.21.46c.04.1.15.69.23 1.12.08.43.16.99.27 1.41-.1 0-.12.43-.08.7.04.26.29.72.32.85.04.13.2.19.3.16.1-.04.33.02.33.02s.1.1.27.12c.17.03.2.16.2.16s.01.23-.09.27c-.1.04-.19.24-.22.34-.03.1-.35.44-.35.44l.08.33-.02.3.01.43s.11.26.21.39c.1.13-.02.27-.02.27s-.02.37.08.56c.11.19.08.59.09.69 0 .1.11.43.18.56.07.13.08.36.08.36s-.09.33-.05.6c.04.26.06.86.1.96.04.1.14.29.08.39-.06.1-.15.43-.12.53.04.1.21.29.21.29s-.09.2.08.33c.17.13-.16.17-.26.14s-.33-.05-.53-.08-.4-.09-.56-.05c-.16.04-.2-.16-.21-.26 0-.1-.07-.16-.07-.16l-.23.17s-.2-.03-.3-.06c-.1-.03-.43-.09-.53-.12-.1-.03-.04-.2-.08-.3-.04-.1.02-.37-.05-.53-.07-.16-.11-.39-.19-.65-.13-.06-.32-.82-.36-1.08-.04-.26-.07-1.29-.08-1.72-.01-.43-.11-.36-.31-.52-.2-.16-.14-.26-.28-.42-.14-.16-.23.17-.36.18-.13 0-.56.02-.83.02-.27.01-.83.09-1.09.13-.26.04-.27-.09-.37-.15-.1-.06-.33.01-.49.05-.16.04-.11-.23-.11-.23l-.3.01s-.36.11-.49.18c-.13.07-.36.14-.46.18-.1.04-.21.77-.27.97-.06.2-.11.66-.2.86-.09.2-.08.5-.05.66.04.16-.08.5-.08.63s-.19.27-.29.37c0 0 .01.23.04.36.04.13-.12.33-.15.53 0 0 .01.23-.06.33-.06.1-.18.47-.27.9-.09.43-.25.44-.25.44l-.26.14s-.3-.12-.43-.15-.21-.29-.21-.29l-.09.14s-.2.04-.33-.02-.3-.12-.43-.12-.4-.15-.4-.15-.05-.43-.05-.59c-.01-.16-.02-.5-.02-.69-.01-.2.05-.6.08-.73s-.04-.3-.14-.39c-.1-.1.09-.3.22-.47.13-.17.02-.36.02-.36s-.07-.16-.04-.3c.03-.13.09-.33.12-.53s.05-.63.04-.76c0-.13-.01-.3.12-.37s.12-.3.12-.47c0-.17.15-.57.21-.73.06-.17.06-.3.06-.3s-.33-.06-.43-.05c-.1 0-.3-.19-.41-.35-.1-.16-.34-.32-.47-.38-.13-.06-.31-.42-.38-.52-.07-.1-.21-.46-.32-.59-.1-.13-.21-.39-.11-.49l.19.18zm5.42.96c.2.19.51.55.75.54.23-.01.4.02.56.05.17.03.4.15.63.08.23-.07.85-.19 1.02-.26.16-.07.69-.25.82-.29.13-.04.26-.04.18-.47-.08-.43-.17-1.29-.28-1.65-.11-.36-.29-.95-.3-1.25-.01-.3-.05-.66-.13-.86-.07-.2-.08-.4-.15-.56-.07-.16-.11-.39-.18-.62-.07-.23-.12-.72-.12-.72s.02-.3-.11-.23c-.13.07-.16.17-.29.17-.13 0-.2.07-.19.17 0 .1-.06.27-.19.44-.13.17-.31.51-.34.64-.03.13-.09.33-.22.47-.13.14-.31.61-.37.87-.06.27-.43 1.04-.52 1.41-.09.37-.3 1-.42 1.27-.07.14-.15.64-.15.8zm12.84-9.85l.26-.01s-.04-.16.26-.2c.3-.04.69-.09.79-.06.1.03.37.19.47.28.1.1.34.22.34.22l.17.19s.2.12.14.36c-.06.23-.15.6-.24.77-.09.17-.19.4-.18.5 0 .1-.06.3-.12.47-.06.17-.18.6-.18.73s.01.26-.09.37c-.1.1-.19.4-.18.57.01.17-.12.27-.24.67s-.24.64-.21.77c.04.13.14.33.04.33s-.1.1-.15.44c-.05.32-.16.95-.16 1.12 0 .17-.05.4-.15.6-.09.2-.12.56-.14.73-.03.16.04.65-.05.6-.1-.06-.09.43-.18.77-.09.33-.15.57-.11.8.04.23.04.33.02.53-.03.2-.02.56.02.76.04.2.26 1.05.34 1.28.07.23.24.19.28.39.04.2-.02.33.21.46.24.12.27.02.44.22.17.19-.06.27.17.19.23-.07.29-.14.43-.14.13 0 .49-.08.62-.12.13-.04.23-.04.36-.14.13-.1.49-.15.68-.35.19-.2.97-.79.97-.79s.07.06.16-.07c.1-.13.45-.44.64-.58.19-.14.55-.35.71-.62.16-.27.45-.58.54-.68.1-.1.12-.3.12-.3s.07-.04.16-.14c.1-.1.35-.34.35-.34l.26-.21s.2.13.17.23.01.2-.09.4c-.09.21-.29.38-.29.38s-.06.13-.09.23-.16.17-.19.3c-.03.13.14.19-.09.37-.23.17-.39.31-.38.44 0 .13-.13.2-.19.3-.06.1-.23.21-.45.48s-.29.44-.41.51c-.13.07-.23.14-.23.24 0 .1.14.16-.03.23-.16.07-.29.11-.42.24s-.19.3-.29.37c-.1.07-.16.04-.33.14-.16.1-.39.28-.58.45-.19.17-.36.08-.52.28-.16.2-.49.38-.75.52s-.33-.02-.56.05c-.23.07-.39.08-.49.15-.1.07-.3.01-.4-.02-.1-.03-.07-.03-.37-.09s-.4-.12-.63-.08c-.23.04-.33.08-.5-.12-.17-.2-.24-.16-.37-.19s-.53-.12-.63-.15c-.1-.03-.2-.16-.2-.16s-.07-.07-.2-.16c-.13-.1-.21-.36-.28-.49-.07-.13-.15-.49-.28-.55-.13-.06-.18-.36-.18-.53-.01-.17-.01-.43-.09-.69-.04-.16-.11-.46-.12-.59 0-.13-.12-.66-.09-.76.03-.1-.02-.53-.02-.53s-.11-.43-.08-.53c.03-.1.03-.23.02-.37 0-.13.16-.34.15-.44 0-.1-.11-.53-.15-.72-.04-.2.15-.66.14-.8 0-.13.08-.8.07-.96-.01-.16.15-.6.24-.97s.27-.84.3-1.04c.03-.2.08-.66.14-.86.06-.2.19-.41.25-.54.06-.13.05-.43.15-.47.1-.04.22-.27.37-.77s.43-1.17.52-1.41c.09-.23.37-.77.46-1.04.13-.24.42-.65.42-.65z"/><path class="st1" d="M61.24 25.33c.26-.01.47.12.47.22s-.03.1.04.2.1.16.24.26c.13.09.14.13.27.25.14.13.21.32.34.35.13.03.37.19.64.41.27.22.2.16.54.28.33.12.44.25.87.47.44.22.11.2.11.2s.23.06.37.05c.13 0 .33-.04.46-.05.13 0 .5.02.5.02s.31-.64.41-.77c.09-.14.13-.17.16-.27s.19-.4.38-.67.45-.51.67-.78c0 0-.01-.2.16-.23.16-.04.2-.11.52-.45s.28-.41.51-.55c.23-.14.4-.08.52-.18.13-.1.26-.17.36-.21.1-.04.39-.11.66-.12.26-.01.39-.04.63-.09.23-.04.39-.14.82-.16.43-.01.2.09.24.19.04.1.2.09.44.15.23.06.4.19.5.22.1.03.21.26.31.35.1.1.24.22.34.32.1.1.2.19.25.62.05.43-.01.76 0 .93 0 .16-.16.27-.15.4 0 .13-.12.27-.19.37-.06.1-.29.24-.45.51-.16.27-.45.51-.61.65-.16.14-.65.28-.65.28s-.16.14-.22.24c-.06.1-.33.01-.46.11s-.49.31-.72.39c-.23.07-.36.01-.49.08s-.39.11-.53.12c-.13 0-.53-.08-.63-.08-.1 0-.13.07-.16.17s-.06.27-.09.4-.15.37-.14.8c.01.43-.17.93-.2 1.13-.03.2-.05.43-.11.63s-.12.4-.14.7c-.02.3-.25 1.73-.32 2.39-.08.66-.03 1.09-.02 1.49.01.4.05.53-.01.63-.06.1-.09.47-.08.63 0 .16-.05.56.02.76.07.2-.09.43-.11.57-.03.13-.09.4-.08.6.01.2-.01.6-.08.73-.06.13.06.96.17 1.12.1.16.04.39-.08.53-.13.14-.09.3.22.79.31.49-.09.17.05.59.15.43-.12.37-.22.5s-.32.34-.42.48c-.1.13-.23.04-.4.04-.17.01-.26.01-.4.04-.13.04-.07-.16-.11-.29-.04-.13-.4-.25-.78-.47-.37-.22-.52-.81-.53-1.07a5.86 5.86 0 00-.06-.76c-.04-.23-.29-.82-.34-1.25-.05-.43-.1-1.02-.1-1.02s-.27-.16-.04-.3c.23-.14.16-.27.19-.37.03-.1-.27-.26-.27-.26s-.13-.03-.07-.2.02-.43.02-.6c-.01-.17-.09-.89 0-1.12.09-.24.01-.66.01-.83 0-.16.02-.26.09-.4.06-.13.18-.54.21-.73.03-.2-.01-.33-.11-.39s-.07-.1.03-.17.12-.27.12-.5c-.01-.23.14-.67.14-.77 0-.1.09-.17.16-.3.06-.13.03-.23.05-.37.03-.13.08-.63.08-.63s.02-.23.05-.37c.03-.13.16-.17.16-.17s.06-.33.08-.46c.03-.13-.04-.2-.01-.33s.12-.47.18-.63c.06-.17.12-.4.18-.73.06-.33.12-.5.18-.67 0 0-.2.01-.3-.09-.1-.1-.2-.03-.73-.14-.53-.12-.64-.21-.8-.31-.17-.09-.57-.41-1.11-.59-.53-.18-.74-.47-1.08-.66-.34-.19-.51-.45-.48-.55.03-.1-.31-.39-.38-.55-.07-.16-.17-.19-.17-.32-.08-.13.24-.37.51-.38zm8.24 2.43s.5.02.63-.08.13-.14.39-.21c.26-.07.59-.22.59-.22s.1-.13.23-.14c.13 0 .27.09.3-.01.03-.1.06-.3.19-.43.13-.14.39-.38.51-.61.12-.23.11-.6.07-.86a.731.731 0 00-.28-.49c-.1-.06-.33-.09-.53-.05-.2.04-.33-.02-.53.08-.2.11-.23.07-.29.21-.06.14-.23.14-.29.27-.06.13-.13.14-.22.34s-.12.43-.25.57c-.13.14-.16.2-.16.3 0 .1-.12.27-.19.44-.06.17-.25.47-.25.47s-.31.6.08.42z"/><path class="st1" d="M87.12 28.39c-.01-.29.1-.8.17-.9.07-.1.04-.32.01-.55-.03-.22.04-.45.08-.52.05-.08.07-.23.01-.52-.06-.29.03-.75.1-.9.07-.15.11-.38.15-.6.04-.23.16-.53.16-.55 0-.03-.06-.17-.06-.17s-.06-.27-.06-.49c-.01-.22.11-.4.18-.5.07-.1.13-.67.24-1.15.11-.47.23-.75.24-1.02.02-.27.08-.52.15-.73.07-.2.11-.38.11-.47 0-.1.12-.18.19-.15.07.02.15-.1.17-.2.02-.1.09-.28.21-.4.12-.13.24-.25.31-.33.07-.08.24-.31.38-.41.15-.1.3-.04.44-.06.15-.03.4-.06.64-.07.25-.01.11.27.06.49.08 0 .1.15.13.29.03.15-.13.5-.13.7.01.2-.09.42-.11.57-.02.15-.09.42-.16.53-.07.1-.01.62-.02.82-.02.2.07.57-.05.7-.12.13-.14.18-.08.57.06.39.01.4-.03.55-.04.15-.08.5-.03.77.06.27.07.62 0 .72-.07.1-.07.15-.06.4.01.25.04.35.09.49.05.15-.09.25-.11.38-.02.12-.03.79-.02.94 0 .15.03.3.01.45-.02.15-.12.3-.08.72.04.42.08.99.11 1.11.03.12.13.12.2.07s.29-.13.49-.14c.2-.01.35.09.58.13.22.04.84-.08 1.06-.11.22-.03.15.12.15.12s.1.02.27.04c.18.02.62.01 1.39-.04.77-.05.55.08.9.1.35.01.97.07.97.07s.13.07.25.02c.12-.06.13.09.18.17.05.07.1.12.2.12s.15-.1.22-.23.52-.12.52-.12.23.07.35.16c.13.09.33.14.43.13.1 0 .17-.13.34-.11.17.02.38.16.5.23.13.07.52-.04 1.02-.01s.7.1 1.07.19c.38.09.38.09.67.08.3-.01.25.04.25.04s.05.12.13.12c.07 0 .15 0 .25.12s.18.07.42-.04c.24-.11.25.07.25.07l.25.19.3.05c.1.02.22.04.35.06.37.06.98.27 1.1.29.12.02.28.07.48.13.2.07.23.22.33.24.1.02.37-.01.59-.04.22-.03.52.11.98.27.45.16 1.05.34 1.3.48.25.14.56.36.66.5.1.15.1.72.1.84s-.16.43-.23.5a.4.4 0 00-.11.3c0 .12-.22.25-.34.33-.12.08-.57.07-.69.12-.12.05-.51.24-1.18.31-.67.07-1.22.01-1.31.04-.1.03-.15.06-.25.11s-.25-.04-.37-.06c-.12-.02-.27-.04-.2-.09.07-.05-.13-.14-.23-.19-.1-.05-.77-.05-.77-.05s-.42.11-.49.09c-.08-.02-.3-.19-.5-.23-.2-.04-.21-.29-.21-.37 0-.07-.1-.12-.23-.09-.12.03-.28-.31-.26-.44.02-.13.2-.01.3-.06.1-.05.2-.11.29-.13.1-.03.52-.04.52-.04l.72-.07c.3-.03.2 0 .42-.04.22-.03.22-.03.17-.13-.05-.1.2-.08.44-.16.25-.08.57-.12.79-.17.22-.06.24-.16.24-.23s-.32-.06-.5-.13-.43-.23-.53-.23c-.1 0-.25-.04-.32.01s-.08-.05-.13-.12c-.05-.07-.1.03-.22.06s-.08-.1-.33-.29c-.25-.19-.58-.21-.97-.22-.4-.01-.75-.13-.88-.17-.12-.04-.23-.19-.23-.19l-.5-.01s-.27-.02-.45-.14c-.18-.12-.77-.2-.95-.22-.17-.02-.47-.01-.47-.01s-.2-.07-.25-.17c-.05-.1-.35-.11-.48-.13-.12-.02-.5.02-.62.07s-.22.06-.5-.08-.18-.09-.25-.07c-.07.03-.5-.08-.65-.13-.15-.05-.27-.09-.35-.11-.07-.02-.37-.04-.52.06-.15.1-.22-.04-.43-.11-.2-.07-.52-.01-.79-.03-.25-.04-.64.02-.64.02s-.27.11-.45-.04c-.18-.14-.38-.11-.48-.13-.1-.02-.27.03-.37.06-.1.03-.15-.02-.25-.07-.1-.04-1.14.01-1.31.02-.17 0-.64.04-.94.03-.3-.01-.26.28-.26.28s.01.25-.01.4c-.02.15-.05.75-.02.89.03.15-.01.35.04.42s.08.2.09.42c.01.22.08.91.08.91s.06.37.04.45c-.02.08.04.52.15.74.11.22-.11.33-.08.67.03.35.05.72.1.82.05.1.16.52.23.89.06.37-.04 1.24.06 1.83.09.59.06 1.04.21 1.33.16.29-.05.7.1.96.16.27.23.14.23.14s.12-.03.25.04.08.07.2-.01c.12-.08.17-.05.4.01.23.07.45-.01.45-.01s.3-.01.62.05c.32.06 1 .17 1.37.21.37.04.7.05.94-.01.25-.05.47-.04.57-.02.1.02.37.04.37.04s.13.07.22.02c.1-.05.27.04.65.08.37.04.82 0 1.34-.09.52-.09.74-.12 1.11-.08.37.04.45.13 1.04-.06.59-.19.66-.24.86-.3.2-.06.67-.02 1.14-.01.47.01.61-.17.61-.17s.2-.08.32-.03c.12.04.3-.06.49-.17.19-.1.44-.16.88-.28.44-.11.61-.17 1.13-.38.51-.21 1.03-.4 1.13-.51.1-.1.34-.21.81-.37.46-.16.36-.23.44-.31.07-.08.07-.2.43-.39.37-.18.44-.21.54-.29.1-.08.24-.18.54-.34.29-.16.6-.48.6-.48l-.03-.25s.27-.16.78-.5c.51-.34.31-.6.47-.73.37-.29.14-.28.14-.28s.05-.11.61-.57c.56-.46.15-.62.18-.68.02-.05.09-.2.22-.21.12 0 .17-.2.17-.3 0-.1.14-.35.45-.71s.28-.46.25-.78c-.04-.32.04-.27.14-.35.1-.08.17-.15.21-.4.04-.25.13-.65.22-.93s.13-.45.06-.5c-.08-.05.04-.37.11-.62s.01-.37-.04-.49-.03-.2.04-.23.02-.15-.03-.22.04-.2.06-.33c.02-.13-.11-.27-.11-.27s-.16-.27-.26-.49c-.11-.22.11-.43.11-.43s.12-.13.17-.28c.05-.15-.1-.17-.18-.19-.07-.02-.08-.12-.03-.2.05-.08.04-.17-.03-.27-.08-.1-.18-.27-.14-.37.05-.1-.19-.42-.32-.61s-.25-.81-.25-.91c0-.1-.05-.15-.08-.27a.8.8 0 00-.23-.37c-.1-.07.16-.3.16-.42s-.16-.24-.38-.29c-.22-.04-.3-.24-.39-.43-.08-.19-.19-.42-.24-.54a.656.656 0 00-.28-.29c-.1-.05-.16-.39-.24-.51-.08-.12-.26-.41-.36-.46-.1-.05-.21-.24-.31-.56-.11-.32-.54-.53-1.1-1.18-.57-.65-1.59-1.59-1.66-1.66-.08-.07-.28-.29-.41-.33-.13-.05-.4-.24-.53-.38-.13-.15-.44-.53-.81-.67-.38-.14-1.27-.83-1.49-1-.23-.17-.46-.38-1.04-.64-.58-.25-1.52-.84-1.7-.93-.18-.09-.42-.27-.67-.29-.25-.02 1.31.72 1.19.6-.13-.12-.04-.15-.21-.19-.17-.05-.45-.04-.53-.18-.08-.15-.18-.09-.4-.09-.22.01-2.98-1.4-3.2-1.39a.49.49 0 01-.43-.19c-.08-.1-.29-.07-.94-.12-.65-.05-1.13-.54-1.13-.54s-.1-.02-.4-.09c-.3-.07-.12-.11-.47-.15-.35-.04-.38-.11-.47-.06-.1.05-.51-.34-.78-.36-.27-.02-.43-.14-.53-.16-.1-.02-.12.08-.22.11s-.52-.08-.52-.08-.42 0-.47-.07c-.05-.07-.39-.17-.53-.16-.15 0-.28-.12-.43-.26-.22-.1-.87-.03-.87-.03s-.37.04-.47.01c-.1-.02-.6-.13-.8-.2-.2-.07-.75-.15-1.07-.12-.32.03-.65-.05-.8-.05-.15 0-.69-.08-.81-.1-.12-.02-.03-.1-.1-.15-.08-.05-1.02.03-1.24.04-.22.01-1.22-.06-1.46-.01-.25.06-.7-.13-.9-.15-.2-.02-.42-.06-.7 0-.35.08-.87-.04-1.53-.04-.72 0-1.19.01-1.79 0-.6-.01-1.08-.01-1.84.14-.77.15-.74.11-1.26.12-.52.02-.89.26-.96.29-.07.03-.14.28-.46.41-.32.13-.73.32-.83.42-.1.1-.22.23-.29.33-.07.1-.27.23-.01.47.26.24.06.29-.09.3-.15 0-.29.18-.44.24-.15.05-.39.11-.57.09-.17-.02-.22.13-.37.16s-.37.06-.47-.01c-.1-.07.04-.18.04-.25s.04-.15.04-.15.09-.3.06-.38c-.03-.07-.2-.07-.3-.07-.1 0-.27-.02-.52-.11s-.09-.37-.02-.54c.07-.18.04-.42.01-.57-.03-.15.04-.28.19-.4.15-.13.27-.16.49-.36.22-.21.68-.25 1.1-.39.42-.14.81-.12.91-.15.1-.03.27-.08.54-.12.27-.03.42-.06 1.26-.26.84-.2 1.34-.04 1.61-.08.27-.03.57-.07 1.12-.01.55.06.58.16.52-.02-.06-.17 1.29-.14 1.58-.1.3.04.23.04.42-.01.2-.06.35-.04.67.08.33.11.64 0 .82-.03.17-.03.59-.02.9.05.3.07.32.04 1.02-.01.69-.05 1.51.03 1.84.07.32.04.65.03.77.08.13.05.18.07.3-.01s.38.09.6.13c.22.04.57.08.85.07.27-.01.32.01.75.13.42.11.52.03.92.05.4.01.55-.11 1.35.09s.6.13 1.1.24c.5.11.57.08 1 .17.42.11.54.06 1.02.24s.55.13.9.22.42.04.6.06c.18.02.45.21.58.28.13.07.39-.02.39-.02s.22-.01.45.11.55.21.95.32c.4.11.33.11.45.11s.56.28.91.4c.35.11.33.07.4.21.08.15.81.13.91.15.1.02.16.05.39.07.22.02.18.19.3.21.12.02.4.19.4.19s.25.09.35.11l.3.06s.13-.01.54.2c.4.21.78.37.93.42.15.05.4.16.68.35.28.19.33.16.63.33s.5.21.63.33c.13.12.13.12.35.21.23.09.3.16.71.35.4.19.43.21.5.28.08.07.15.14.15.14l.06.2s.03.1.23.12c.2.02.24-.08.24-.08s.1.07.23.22c.13.14.08.12.31.27.23.14.15.09.28.19.13.1.35.19.69.47.33.29.53.26.7.28.18.02.33.14.43.31.11.17.13.22.26.29.13.07-.04.33.11.47.15.14.53.43.92.89s.26.36.26.36.33.09.48.23c.15.14.18.19.36.31s.26.32.31.39c.05.07.17.52.22.59.05.07.28.17.35.19.07.02.17.02.25.09.08.07.06.27.14.49.08.22.52.63.6.82.08.2.25.24.34.49.08.25-.02.27.44.68.46.41.33.24.52.6.19.37.19.59.3.88.11.3.18.12.33.29.15.17.06.44.1.82.04.37.01.32.01.32s-.17.15-.14.25.13.37.31.46c.18.09.21.37.24.59.03.22.07.69.13 1.06.06.37.16.34.21.49.06.15-.04.25.09.52s.04.47-.03.57c-.07.1-.04.2.04.37.08.17.08.1.03.3-.04.2-.06.47-.09.99s-.12.97-.12.97-.04.4-.13.47c-.1.08.02 0 .03.15.01.15-.25.65-.3.8-.05.15-.06.45-.21.53-.15.08-.07.18-.04.28.03.1-.09.22-.19.23-.1 0-.17.13-.26.33s-.28.68-.4.86c-.12.18-.26.28-.26.28s-.16.38-.18.5c-.02.12-.19.3-.26.28-.08-.02-.17.15-.29.41-.12.25-.24.35-.31.48-.07.12-.19.2-.27.23-.07.03-.17.18-.39.41-.22.23-.65.62-.85.7-.2.08-.22.18-.31.26-.1.08-.34.28-.38.41-.05.13-.7.57-1.37.76-.66.2-1 .53-1.32.79-.31.26-.74.25-.88.3-.15.05-.86.27-.86.27s-.12.23-.27.21c-.15-.02-.4.06-.57.14-.17.08-.47.16-.56.22-.1.05-.07.1-.22.08-.15-.02-.32-.04-.62.12-.29.16-.96.25-1.06.26-.1 0-.39.16-.63.32s-1.58.17-1.71.2c-.12.03-.37.01-.54.09-.17.08-.62.09-1.09.13-.47.04-.89.03-.97.03-.07 0-.32.09-.82.12-.49.04-.42-.04-.62 0-.2.03-.27.01-.32.08-.05.08-.3.06-.42-.04-.13-.1-.4.06-.49.11-.1.05-.27-.04-.37-.09-.1-.05-.85-.05-1.51 0-.67.04-.92.03-.99.05-.07.03-.17.01-.25-.09-.08-.1-.94-.05-1.19-.04-.25.01-.55-.04-.94.03-.4.06-.4-.01-.63-.21-.23-.19-.04.15.01.32s.08.25.16.29c.08.05.11.29.14.39.03.1.06.25-.01.45-.07.2-.33.53-.55.59-.22.05-.32.21-.32.21s-.34.23-.49.29c-.15.05-.45-.06-.52-.06s-.13-.02-.33-.09c-.2-.07-.3.01-.6-.03s-.2-.17-.28-.26c-.08-.1-.18-.17-.36-.34s-.4-.14-.58-.25c-.18-.12-.24-.52-.18-.89.06-.38-.04-.64-.1-.87 0 0-.4-.06-.52-.03s-.22-.04-.65-.2c-.43-.16-.55-.13-.77-.15-.22-.02-.3-.04-.48-.13a.981.981 0 00-.57-.08c-.15.03-.28-.09-.43-.26-.15-.17-.2-.12-.38-.21s-.85-.12-1.05-.12c-.2.01-.3-.16-.38-.26-.08-.1-.23-.27-.36-.41-.13-.14-.6-.08-.9-.07-.3.01-.12-.02-.11-.32.02-.3-.03-.07-.28-.21-.25-.14-.35-.07-.45-.04-.1.03-.2.01-.28-.14-.08-.14-.25-.12-.35-.06-.1.05-.25-.09-.25-.19s-.03-.15-.3-.24c-.28-.09-.33-.24-.71-.4-.38-.16-.51-.33-.84-.62-.33-.29-.46-.46-.97-.86-.51-.41-.79-.52-1.09-.61-.3-.09-.28-.39-.39-.46-.1-.07-.03-.22-.11-.37-.08-.14-.18-.27-.34-.48-.16-.22-.28-.36-.36-.46-.08-.1.09-.3.11-.4.02-.1.04-.2-.01-.32s-.13-.34-.11-.44c.02-.1-.03-.15-.13-.27-.1-.12-.01-.2.17-.25.17-.06.14-.13.17-.23.02-.1.12-.08.24-.13s.09-.32.09-.4c0-.07-.03-.17.14-.3.17-.13.39-.33.51-.44l.02-.17s.36-.29.56-.42c.19-.13.44-.16.71-.24.27-.08.41-.31 1.05-.65.63-.34.54-.31 1.03-.43s.25-.06.64-.12c.4-.06.47-.14.83-.3.37-.16.76-.22.98-.3.22-.08.2.09.2.09s.22-.03.64-.14c.42-.11.49-.19 1.08-.26.59-.07.47.04.91-.13.44-.16.64-.12 1.14-.18.49-.06.7.03 1.44-.04.09-.08.03-.5.02-.8zm-.04 2.75c-.05-.12.09-.38-.28-.36-.37.01-.99.03-1.44.09-.44.06-.4-.01-.89.15s-.99.1-.91.1c.07 0 0-.15-.25-.07-.24.08-.37.11-.44.19s-.12.1-.22.06c-.1-.05-.17-.04-.25.03-.07.08-.07.2-.24.16-.17-.04-.15-.02-.42.04s-.27.08-.39.14c-.12.05-.24.23-.54.26-.3.04-.47.12-.49.19-.02.08.03.25-.09.2a.233.233 0 00-.23.06l-.09.1s-.2.06-.27.11-.24.18-.24.18-.17.11-.1.15c.08.05.1.12.08.2-.02.07-.04.17-.22.13-.17-.04-.2.03-.34.09-.15.05-.32.21-.44.26-.12.05-.25.11-.4.06-.15-.05-.32-.07-.35.01-.02.07-.04.17-.17.18-.12 0-.17.08-.22.16-.05.07-.19.18-.27.25-.07.08-.31.21-.34.31-.02.1.04.35.11.44.08.1.13.29.13.29s.46.53 1.14.96c.68.43 1.52.92 1.97 1.21.46.29 1.09.69 1.24.71.15.02.28.06.35.14.08.07.26.27.4.21.15-.05.12-.05.32.06.2.12.75.3.98.27.22-.03.45.13.68.33.23.19.71.47.78.5.08.02.15.14.15.14s.15.1.23.12c.07.02.99.23 1.24.27.25.04.48.13.63.18.15.05.33.12.27-.18-.06-.29-.07-2.18-.06-2.85.01-.67.07-1.07-.02-1.59-.09-.52-.21-1.45-.21-1.45s.16-.35.1-.65c-.06-.3-.04-.62-.05-.97-.01-.35 0-.75.05-.95.06-.19.02-.62.02-.62zm34.8-7.11s.1.05.13.14c.03.1.16.19.28.12.12-.08.19-.45.19-.45s.17-.06.25.07c.08.12.03.2.33.36.3.16.36.44.39.68.03.25.02 1.54.08 1.78.06.25.02.64 0 .75-.02.1.01.47.04.59s.06.25.02.47c-.04.23.02 1.44.05 1.74.03.3.13 1.11.09 1.19-.05.07-.09.45-.08.52 0 .07.06.4.06.4s.13.27.09.37c-.05.1-.09.2-.19.21-.1 0-.07.15-.04.22.03.07.05.15.13.17.07.02.2.05.15.17-.05.12-.07.2-.09.35-.02.15-.03.7-.02 1.04.01.35.08.94.09 1.24.01.3 0 .94.01 1.17.01.22.14.57.14.57s.23.21.23.29c0 .07.08.27.01.37-.07.1-.09.28.01.3.1.02.2.12.18.22-.02.1-.12.03-.14.15-.02.12-.01.32-.06.45-.05.12-.14.15-.17.25-.02.1-.11.35-.29.38-.17.03-.32.03-.32.03s-.06-.17-.28-.12c-.22.05-1.12-.07-1.22-.19-.1-.12-.08-.29-.19-.37-.1-.07-.33-.26-.31-.36.02-.1.07-.15-.01-.22s-.2-.17-.23-.29c-.03-.12.01-.32-.14-.44-.15-.12-.29-.51-.29-.59 0-.07-.12-1.44-.16-1.96-.04-.52-.12-.77-.2-.86-.08-.1-.09-.39.01-.42.1-.03.2.14.12-.23-.09-.37.06-.45.03-.7-.03-.25-.09-.42-.01-.45.07-.03.17-.03.09-.17-.08-.15-.01-.18-.06-.3-.05-.12-.18-.19-.11-.29.07-.1.01-.32.1-.67.09-.35.02-.92.1-1.67.08-.75.17-1.07.19-1.17.02-.1.09-.94.11-1.24.02-.3.11-1.15.18-1.29.07-.15.09-.38.13-.55.04-.17.14-1.09.19-1.2.05-.1.21-.33.21-.33 0-.07.2-.23.2-.23zm16.63 3.11c.15-.08.39-.16.47-.11.08.04.36.06.56.05.2-.01.22-.03.37-.04.15 0 .35-.04.39-.14.05-.1.07-.22.17-.23.1 0 .27-.04.22-.14-.05-.1.03.11-.03.01-.05-.1-.09-.07-.17-.11-.08-.05-.23-.27-.51-.31-.27-.04-.45-.16-.6-.15-.15 0-.54-.13-.84-.1-.3.04-.58.23-.8.13-.23-.09-.25-.12-.45-.11-.2.01-.27.01-.4.04-.12.03-.25.06-.32.11s-.1.08-.2.03-1.16.16-1.43.22-.29.08-.47.11c-.17.03-.22.01-.37.01s-.32.03-.4-.01c-.08-.05-.27.03-.27.03s-.02.05-.29.11c-.27.06-.37.06-.64.12s-.3-.02-.42.06-.47.11-.67.14c-.2.03-.12 0-.3.06-.17.05-.17.1-.42.11-.25.01.1 0 0 0s-.3.03-.3.03l-.09.28s-.1.05-.2.01c-.1-.05-.13-.12-.23-.12s-.17.05-.54.17c-.37.11-.71.25-.83.35-.12.1-.12.13-.29.21-.17.08-.42.19-.49.26-.07.08-.15.13-.29.21-.15.08-.24.18-.34.21-.1.03-.44.16-.46.26-.02.1-.07.2-.22.23s-.1.15-.17.23c-.07.08-.17.1-.26.26-.1.15-.21.38-.31.48-.1.1-.26.36-.19.43.08.07.11.2.16.27s.18.14.13.27c-.04.12-.04.25.03.3.08.05.48.21.51.31.03.1.33.31.46.31.12 0 .62.11.83.25.2.14.53.18.78.23.25.04.47.06.55.13.08.07.28.19.4.16s.17-.11.47-.04c.3.06.5.18.62.15s.04-.25.3-.01c.25.24.48.21.58.18.1-.03.07-.1.32-.04.25.06.33.11.55.13.22.02.68.23 1.25.26s.97.17 1.4.31c.43.13.83.29.93.29.1 0 .33.06.4.14.08.07.18.04.23.17.05.12.13.3.21.27.07-.03.17-.03.17-.03s.08.14.15.19c.08.05.31.31.34.44.03.12.18.34.18.34s.08.22.11.34c.03.12.11.25.03.3-.07.05-.02.1-.02.28.01.17-.06.57-.27.77-.22.21-.29.36-.45.51-.17.15-.24.13-.51.24-.27.11-.54.27-.76.37-.22.11-.51.21-.59.19-.07-.02-.13-.1-.27-.02a.8.8 0 01-.44.11c-.2.01-.37-.04-.5-.01-.12.03-.25.11-.25.11s-.05.1-.17.13c-.12.03-.3.03-.3-.04s.07-.08-.3-.12c-.37-.04-.72-.1-1-.09-.27.01-.32-.04-.42-.09-.1-.05-.3-.14-.4-.14-.1 0-.37-.01-.37-.01s-.13-.1-.22-.07c-.1.03-.1 0-.25-.14s-.11-.22-.16-.32-.18-.27-.11-.35c.07-.08.27-.08.32-.21.04-.13-.18-.32.14-.4.32-.08.62-.07.76-.22s.52-.14.64-.14.42.04.57-.04c.15-.08.22-.15.32-.13.1.02.45.01.38.09s-.02.3-.02.3l.2.14.22.02s.07-.23.12-.3c.05-.08.14-.3.06-.3-.07 0-.13-.12-.13-.12s-.01-.2-.13-.22c-.12-.02-.52-.08-.7-.1-.17-.02.1-.11-.25-.12-.35-.02-.57.02-.74 0-.17-.02-.37.01-.37.01s-.07.08-.15.05c-.08-.02-.25-.09-.33-.09-.07 0-.37-.06-.47.02-.1.08-.15.03-.45.06-.3.04-.44.04-.72.05-.27.01-.4.01-.49.09-.1.08-.25.11-.49.14-.25.03-.35.06-.42.14-.07.08-.17-.02-.17-.02-.15.05-.34.09-.37.16-.02.08-.07.18-.14.21s-.22.06-.24.16c-.02.1-.12.2-.04.27.08.07.05.15-.07.18-.12.03-.22.03-.22.13s-.02.27-.09.35c-.07.08.03.17.03.17-.1.08-.24.18-.24.26 0 .07-.24.23-.07.28.18.04.3.14.38.14.07 0 .2 0 .3.07.1.07.41.41.41.41s.03.15.33.16c.3.02.25.04.6.11.35.06.69-.04.87.07.18.12.5.08.58.18.08.1.18.22.25.17.07-.05.02-.12.24-.13.22-.01.45.14.45.14s.15.19 1.02.21c.87.02 1.64.2 2.09.09.44-.11.84-.17 1.04-.13.2.04.42.01.42.01s.71-.22 1.08-.23c.37-.01.45-.04.67-.1.22-.06.74-.25.83-.32.1-.08.17.05.27-.03s.17-.18.17-.18l.1-.05s.22.04.3-.03c.07-.08-.08-.07.29-.28.37-.21.8-.49.92-.6.12-.1.3-.63.38-.63.07 0 .34-.08.34-.16 0-.07.14-.4.14-.4s.28-.16.47-1.01c.11-.5-.12-1.36-.45-1.67-.33-.31-.52-.65-.69-.7-.18-.04-.05-.1-.31-.21-.25-.12-.45-.21-.6-.21-.15.01-.39.14-.45.04-.05-.1-.06-.25-.06-.25l-.01-.17s.05-.05-.3-.04c-.35.01-.35.01-.5-.09-.15-.09-.08-.1-.28-.11-.2-.02-.23-.04-.52-.01-.3.03.2-.08-.45-.11s-.7-.1-1.17-.19-.67-.11-.85-.08c-.17.03-.22-.02-.45-.08-.23-.07-.15-.07-.37-.04-.22.03-.25.01-.65-.08s-1.22-.21-1.22-.21-.41-.26-.55-.23c-.15.03-.12.2-.29.08-.18-.12-.05-.15-.33-.16-.27-.02-.37-.01-.53-.21-.15-.19-.03-.15-.33-.24-.3-.09-.33-.14-.46-.26s-.21-.32-.14-.42c.07-.1-.01-.47.11-.5.12-.03.3-.06.3-.06s.1-.13.12-.2c.02-.07.19-.15.27-.16.07 0 .27-.13.44-.16.17-.03.22-.08.19-.15-.03-.07.24-.16.42-.21.17-.05.37-.09.49-.19s.22-.13.34-.13c.12 0 .92.02.81-.12-.1-.15-.15-.06.09-.14.25-.08.51-.13.66-.08.15.05.29-.21.31-.28.35.01.37.03.52.07.15.04.3-.03.25-.11-.05-.07-.1-.12.12-.1.22.02.47.06.4.14-.07.08.15.04.15.04s.2-.08.44-.11c.25-.03.72-.27.75-.35.02-.08-.1-.01.1-.04s.39-.14.49-.06c.1.07.13.14.35.14.22-.01.42-.04.42-.04.19-.09.85-.27.93-.22zm6.96-.75s.19-.35-.21-.29-.15.13-.27.16c-.12.03-.3.06-.32.13-.02.07-.02.2-.17.2-.15 0-.17.13-.19.23-.02.1-.04.22-.11.35-.07.13-.17.18-.16.33.01.15.03.25-.08.5-.12.25-.11.5-.13.58-.02.07-.04.27-.06.35-.02.08-.09.28-.11.4-.02.12.12 0 .13.15 0 .15-.01.59-.08.67-.07.08-.22.08-.22.08s-.1.08-.07.17c.03.1.11.42.01.47-.1.05-.07.15-.06.3 0 .15-.01.45-.11.6-.09.15-.14.33-.16.5-.02.18.06.35-.01.42-.07.08-.02.12-.02.25 0 .12-.02.3-.09.33a.24.24 0 00-.14.25c0 .15.04.57 0 .74-.04.18-.11.4-.11.55 0 .15.11.34-.01.57-.12.22-.22.87-.1.79.12-.08.2-.06.22.04.03.1-.04.3-.04.42s-.19.28-.19.28-.02.1.01.17.16.29.09.45c-.07.15.04.54.07.67.03.12.13.34.12.62-.02.27.11.37.09.54-.02.17.04.45.12.52.08.07.08.22.23.34.15.12.38.21.51.31s.18.12.38.09.35.04.42.09c.08.05.15.07.32.04.17-.03.15-.13.24-.13.1 0 .3-.05.37-.06.07 0 .29-.11.27-.23-.03-.12.07-.25.06-.38 0-.12-.09-.52-.16-1.16-.07-.64-.1-.82-.1-.99-.01-.17-.09-.45-.12-.57-.03-.12-.05 0-.1-.17s-.06-.45-.04-.62c.02-.17-.04-.52.01-.62.05-.1.14-.18.11-.57-.04-.4-.03-.84.01-1.17.04-.32.06-.42.08-.57.02-.15.04-.42.08-.62s.18-.68.22-.83c.05-.15.04-.3.04-.4 0-.1.14-.33.14-.45s.07-.2.11-.3c.05-.1.09-.4.11-.55.02-.15.11-.35.19-.48.07-.13.11-.38.34-.16.23.22.47.63.57.73.1.09.3.24.36.36.05.12.13.22.19.37.05.15.28.34.34.54s-.01.37.11.39c.12.02.17-.03.25.19.08.22.19.39.24.46.05.07.13.17.13.29 0 .12-.01.3.06.37.08.07.13.17.15.24.03.07.14.54.29.71.15.17.33.26.34.38 0 .12.08.22.08.22s.07.02.13.15c.05.12.16.37.16.37s.09.49.24.64c.15.14.15-.12.28.19.13.32.22.62.29.69.08.07.18.22.18.22s.05.02.13.17c.08.15.22.54.4.81.18.27.56.53.64.7.08.17.11.24.29.46.18.22.26.46.44.48.17.02.22.07.28.14.05.07.28.09.23.17-.05.07-.07.25.08.22.15-.03.37-.04.49-.09.12-.05.22-.08.27-.16.05-.08.12-.21.12-.21s.15-.05.17.02c.03.08.05.15.13.15.07 0 .1.12.1.12s.12-.03.19-.11.19-.23.19-.23.12-.13.12-.25.02-.25.06-.32c.05-.08.24-.23.24-.23l.12-.18-.1-.15s.02-.15.04-.22 0-.12.07-.2c.07-.08.13.07.15-.05.02-.12.12-.23.06-.5s-.01-.32.13-.53c.14-.2.12-.23.19-.28.07-.05.12-.15.09-.25s-.03-.12-.01-.28c.02-.15.19-.3.1-.6-.08-.3.09-.4.03-.57-.06-.17-.04-.4-.04-.59-.01-.2.06-.52.06-.52s.17-.03.12-.25c-.06-.22-.06-.27-.11-.34s-.11-.32-.09-.39l.02-.07s.15.02.14-.15c-.01-.18-.16-.39-.16-.46 0-.08 0-.03-.06-.27-.06-.25-.02-.59-.05-.72-.03-.12-.02.05-.09-.35-.06-.39-.05-.91-.06-1.16l-.02-.52s-.03-.1-.1-.14a.262.262 0 01-.13-.27c.02-.12-.08-.07-.08-.29-.01-.22.02-.3-.08-.35-.1-.05-.18-.07-.18-.14 0-.08-.06-.27-.09-.42a.637.637 0 00-.13-.3c-.08-.1-.06-.2-.09-.47-.03-.27-.06-.47-.14-.52-.08-.05-.13-.17-.18-.34-.05-.17-.11-.24-.14-.39-.03-.15-.14-.39-.14-.39s-.12 0-.18-.2-.04-.54-.14-.59c-.1-.05-.15-.02-.23-.22-.08-.2-.01-.2-.21-.34-.2-.14-.08-.07-.26-.34s-.41-.41-.39-.56c.02-.15-.06-.2-.18-.24-.13-.04-.33-.09-.33-.26-.01-.17-.01-.32-.09-.37-.08-.05-.18-.17-.28-.14-.1.03-.17.08-.2-.09-.03-.17-.08-.3-.21-.37s-.23-.12-.36-.21c-.13-.09-.25-.12-.25-.21 0-.1-.05-.15-.15-.12-.1.03-.22-.02-.35.01-.12.03-.4.06-.39.16 0 .1.03.2.13.25.1.04.18.07.2.14.03.07.11.22.2.17.1-.05.12-.05.18.07.05.12.13.22.23.34.1.12.26.29.31.36.05.07.28.34.29.41 0 .08.18.22.26.34.08.12.35.24.36.36 0 .12-.04.25.03.35.08.1.08.32.08.32s.04.47.17.59.38.31.38.31.08.22.06.34c-.02.13-.07.25.11.52s.26.44.27.59c0 .15.07.62.12.52.05-.1.12 0 .11.22-.02.22-.08.55.1.84.18.29.18.34.24.56.06.22.13.34.11.49-.02.15-.02.17.01.35.03.17-.09.23-.01.4s.13.27.14.61c.01.35-.03.7-.02.9.01.2.01.35.09.37.07.02.15.2.09.45-.07.25-.06.42-.06.52 0 .1.1.15.1.15s.15.02.1.12c-.05.1-.07.25-.14.23-.08-.02-.2.01-.17.13.03.12-.01.37-.03.52-.02.15-.16.45-.12 1.02.04.57.05.77-.02.87-.07.1-.24.33-.3.65s-.08.55-.21.48c-.13-.07-.2-.17-.33-.19-.12-.02-.18-.12-.28-.29-.1-.17.02-.3-.21-.44-.23-.14-.43-.11-.51-.38-.08-.27-.12-.57-.19-.64-.08-.07-.13-.12-.2-.14-.08-.02-.2-.07-.18-.14.02-.08.05-.1-.06-.17-.1-.07-.13-.1-.15-.19-.03-.1-.01-.35-.14-.52-.13-.17-.2-.14-.28-.29-.08-.14-.08-.2-.16-.24-.08-.05-.02.17-.13-.27-.11-.44-.44-.66-.96-1.46-.52-.8-.83-1.26-1.01-1.51-.18-.24-.21-.32-.21-.42 0-.1.09-.18.02-.32-.08-.15-.29-.41-.6-.85-.31-.43-.63-.48-.79-.77-.16-.29-.24-.44-.37-.59-.13-.14-.28-.26-.35-.19-.23-.24-.51-.41-.51-.48s.12-.05-.18-.12c-.3-.09-.68-.27-.78-.22zm15.14.84c-.09-.14-.25-.13-.25-.13s-.03-.11-.28-.07c-.25.04-.58.13-.53.07.05-.06.05-.11-.01-.2-.06-.08-.12-.14-.12-.22 0-.08.05-.31.05-.31s-.01-.2.18-.37c.19-.17.35-.29.49-.35s.36-.18.47-.16c.11.03.25-.06.42-.12.17-.06.55-.16.69-.19.14-.03.78-.22.89-.28.11-.06.42-.07.42-.07s.25-.01.36-.04c.11-.03.42-.12.53-.15.11-.03.5-.07.5-.07l.2.13.16-.12s.14-.09.33-.09c.2-.01.34.02.45-.01.11-.03.28-.09.28-.09l.23.02s.02-.2.25-.12c.23.08.59.09.73 0s.42-.07.42-.07.06.06.31.05c.25-.01.7.06 1.04.05.34-.01.56-.04.62.04.06.08.31.1.31.1s.25-.01.53-.01c.28-.01.53.04.56.12.03.08.12.14.2.11.08-.03.36-.01.45.07.09.08.23.19.23.19s.17.05.23.16.09.25.04.33c-.05.09.03.17.03.17l-.05.17s-.14 0-.25.06c-.11.06-.5.21-.63.27-.14.06-.28-.05-.47.04-.19.09-.33.23-.41.18-.09-.05 0-.11-.28.01s-.5.02-.59.02c-.08 0-.42.01-.42.01s-.22.09-.39.1c-.17 0-.48.01-.51-.12-.03-.14.05-.22.02-.31-.03-.08-.06-.22-.06-.22s.16-.17 0-.14c-.17.03-.22.06-.36.07-.14 0-.09-.14-.37-.1-.28.04-.7.11-.81.05-.11-.05 0-.06-.34.01-.33.07-.17-.08-.86.2-.69.27-.75.22-1.02.34-.28.12-.33.15-.5.16-.17 0-.22.09-.33.15-.11.06-.11.17-.13.28-.02.11-.1.25-.02.31.09.05.09.17.09.28 0 .11-.15.51-.2.73-.05.23-.07.59-.06.73 0 .14-.22.87-.25.96-.03.08-.05.34-.02.42.03.08-.05.28-.07.4-.02.11-.02.31-.02.31s.11-.06.25.02.17.08.42.01c.25-.06.58-.1.81-.16.22-.06.39-.1.61-.07.22.02.33-.04.33-.04s.03-.03.17-.06.36-.07.36-.07-.11.2.09.17c.19-.04.33-.21.33-.21s0-.14.11-.09c.11.05.25.05.25.05h.14c.08 0 .17 0 .16-.09 0-.08-.03-.2.11-.11.14.08.31.1.31.1s.08-.14.25-.15c.17 0 .25.02.34.05.08.02.28-.04.28-.04s.39-.1.61-.07c.22.02.54.15.54.15s.28.05.39.04c.11 0 .28.08.37.13.09.05.17.19.06.28-.11.09-.38.24-.33.15.05-.09-.14.09-.22.09-.08 0-.22.04-.31.04-.08 0-.22.2-.22.2s0 .11-.11.11c-.11.01-.2-.08-.31.01-.11.09-.55.3-.77.33-.22.03-.19.09-.42.15-.22.06-.27.26-.39.18-.11-.08-.17-.16-.28-.07-.11.09-.13.23-.25.2-.11-.02-.28-.02-.28-.02s-.33.07-.5.13c-.17.06-.05.22-.22.23-.17 0-.61.07-.75.08-.14.01-.31-.02-.42.04-.11.06-.36.04-.47.07-.11.03-.22-.02-.56.1-.33.12-.47.04-.47.04s-.19.06-.16.28c.03.22.07.33-.04.5-.11.17-.24.4-.24.54s.09.25.04.36c-.05.12-.15.43-.2.65-.05.22-.1.34-.07.42.03.08.09.08-.02.2-.11.12-.27.43-.24.54.03.11.19-.34.14 0l-.09.76c-.02.17.03.17-.02.36-.05.2-.24.48-.12.59.12.11.18.25.24.41.06.17-.04.45.12.42.17-.04.28.02.37.1.09.08.34.21.45.18.11-.03.5.01.61-.05.11-.06.83-.33 1.22-.32.39.02.5.01.53-.1.02-.11.05-.14.22-.18.17-.03.25-.03.33-.09.08-.06.28-.12.42-.15.14-.03.36-.18.36-.18s.05-.06.19-.09.33-.01.52-.24c.19-.23.33-.29.44-.32.11-.03.22-.12.3-.12.08 0 .17.08.31-.04.14-.12.27-.29.38-.26.11.03.01.22.2.16s.34.05.34.13.01.31-.12.48c-.13.17-.27.31-.43.6-.16.28-.1.37-.38.52-.27.15-.49.46-.6.58-.11.12-.36.1-.33.01.03-.09.14-.09-.25.17-.38.26-.85.56-1.38.69-.53.13-.67.13-1.14.29-.47.15-.22.15-1.08.29-.86.14-1.06.17-1.36.18-.31.01-.53-.09-.53-.09s-.14-.08-.34-.13-.42-.1-.4-.18c.02-.09-.01-.2-.12-.17s-.14.01-.33.07c-.19.06-.44.1-.44.1s.08-.14-.12-.16c-.2-.02-.42.01-.42-.1 0-.12-.15-.33-.13-.44.03-.11.05-.28-.15-.44-.2-.16-.31-.08-.34-.24-.03-.17-.07-.42-.13-.53-.06-.11-.03-.17-.12-.19-.09-.03-.11-.08-.12-.19 0-.11-.1-.5.03-.75.13-.26.07-.48.09-.59.02-.11.07-.56.12-.73.05-.17.04-.59.11-.9.07-.31.06-.62.12-.73.05-.11.1-.34.1-.45 0-.11-.03-.08.08-.26.11-.17.13-.37.02-.39-.11-.02-.28.15-.34-.04-.06-.2-.1-.56.01-.73.11-.17.1-.34.35-.51.25-.18.41-.15.41-.32-.01-.17.15-.54.2-.82.05-.28.07-.48.12-.76.05-.28.26-.68.2-.79-.06-.11-.17-.13-.01-.25.17-.12.35-.49.37-.77.02-.28-.1-.36.07-.53.16-.17.13-.48.13-.48s-.03-.25-.06-.42zm16.16-2.96c.19-.01.26-.08.54-.21.28-.12.24-.01.7-.09.47-.08.38.06.76.19s.36.08.5.13c.14.04.14.09.14.09s.1.21.13.3.13.4-.05.61c-.18.22-.23.15-.44.25s-.16.05-.25.24-.23.32-.41.46c-.18.15.01.23-.03.42-.04.19-.35.2-.65.37-.3.17-.04.1-.07.19-.02.09-.14.12-.13.22 0 .09-.09.21-.18.34-.09.12-.25.31-.41.6-.16.29-.33.65-.67 1.1-.34.46-.33.69-.73 1.39-.4.7-.38.86-.57 1.46-.19.59-.23.9-.38 1.33-.15.43.03.23.15.44s-.24.62-.28.74c-.04.12.08.23-.03.47-.11.24.03.19-.06.47-.09.29.06.54.06.54s-.11.14-.03.54.07.16.01.26c-.07.1.01.31-.01.47-.02.16.18.3.27.42.1.12.07.14.17.33.1.18.26-.01.35-.08.09-.07.12-.07.3-.06.19.02.09-.19.19-.59.11-.4.41-.6.63-.89.23-.29.18-.19.2-.34.02-.14.13-.38.4-.7.27-.31.34-.48.45-.65.11-.17.07-.1.14-.14.07-.05.09-.26.18-.38s.2-.24.27-.46c.06-.21.34-.43.41-.53.07-.1.07-.03.16-.1.09-.08.11-.31.11-.31l.07-.17s.07-.17.06-.24c0-.07.25-.25.46-.37.21-.12.21-.03.48-.58.27-.55.29-.48.47-.65.18-.17.14-.12.43-.6s.36-.46.55-.58c.18-.12.16-.03.26-.03 0 0 .06-.38.12-.55.06-.16.25-.15.5-.42s.13-.22.13-.22.16-.17.78-.75.41-.32.64-.56c.23-.24.16-.08.21-.2.04-.12.16-.19.41-.34.25-.15.26-.08.39-.27s.46-.44.78-.61c.33-.17.37-.27.6-.4.23-.12.45-.08.63-.11.19-.03.51-.18.91-.26.4-.08.42-.01.87.02s.45.06.55.2c.1.14 0 0 .03.19s.12.07.2.32c.08.26.13.37.2.46.07.09.03.24-.04.28-.07.05-.13.36-.13.5s-.01.52-.09.78c-.09.26-.06.31-.22.48-.16.17-.11.31-.17.52-.06.21.07.14.03.38-.04.24-.14.19-.16.26s-.08.33-.2.5c-.11.17-.13.36-.13.43s-.23.17-.23.17l-.06.24s-.23.34-.36.51c-.14.17-.01.3-.06.45-.04.14-.11.14-.18.27-.07.12-.32.34-.55.56-.23.22-.18.4-.2.5-.02.1-.16.24-.25.29-.09.05-.09.17-.13.29-.04.12-.18.15-.27.31-.09.17-.22.41-.38.58-.16.17-.09.19-.11.26-.02.07-.09.14-.18.22-.09.07-.09.07-.2.27-.11.19-.3.2-.39.27s-.14.17-.2.34-.13.24-.5.56c-.37.32-.94.81-1.15.98-.21.17-.18.24-.25.31s-.26.05-.3.2c-.04.14-.32.2-.44.25-.12.05-.25.2-.3.29-.04.1-.51.32-.51.32s-.23.12-.42.2c-.19.08-.28.1-.39.2-.11.1-.23.08-.3.12-.07.05-.25.15-.25.15s-.14.03-.21-.02c-.07-.04-.12-.02-.3.13s-.18.22-.37.32-.19.03-.32.17c-.14.14-.4.18-.61.18-.21.01-.11.21-.15.45-.04.23-.18.29-.33.64-.15.36-.4.67-.4.67s-.03.43-.05.59c-.02.17-.25.5-.29.69-.04.19-.27.36-.19.57.08.21-.12.59-.17.69-.04.1-.09.24-.11.43-.02.19-.05.55-.14.74-.09.19-.05.57-.14.81-.09.24-.11.38-.17.69-.06.31.01.42-.12.66-.13.24-.08.5-.1.73s-.06.45.04.52.05.23-.03.54c-.08.31-.08.38-.05.59.03.21.08.28.13.4s.1.12.15.21c.05.09-.25.24-.35.29-.09.05-.02.21-.13.54-.11.33.04.45.13.45s.03.16.01.35c-.02.19-.03.54.05.89s-.1.43-.13.52c-.02.09.12.16.2.32.08.16-.01.5-.01.57 0 .07-.13.36-.17.6-.04.24.08.19.09.54.01.35.02.78.03.92 0 .14.05.23.06.3 0 .07-.14.12-.21.17-.07.05-.07.17-.06.24 0 .07-.21.15-.28.24-.07.1-.25.22-.32.32-.07.09-.05-.09-.03-.17.02-.07-.3.13-.47.2-.16.08-.21-.04-.38-.04s-.29-.16-.38-.2c-.1-.04-.21-.09-.43-.2-.21-.11-.22-.25-.22-.25s-.21-.02-.31.03c-.09.05-.21.03-.38-.06s-.38-.22-.38-.22-.16.03-.26-.04-.04-.47-.07-.61c-.03-.14-.01-.24-.06-.4-.05-.16-.24-.32-.39-.41-.14-.09-.15-.37-.18-.44s-.12-.12-.12-.12-.32-.44-.42-.57c-.1-.14-.1-.12-.17-.28-.08-.16-.14-.09-.14-.09s-.1-.21.09-.24.21-.2.37-.22c.16-.03.17.02.31.01.14-.01.25-.1.49-.18.23-.08.21.09.29.15.07.07.12.02.23-.05.12-.07.18-.27.18-.36 0-.09.01-.35.01-.35s.11-.31.1-.4c0-.09-.05-.19-.06-.38-.01-.19-.03-.28-.04-.38 0-.09.07-.19.16-.22s.02-.19.01-.31c0-.12.21-.03.16-.24-.05-.21.04-.24.06-.31.02-.07.11-.21.01-.54-.1-.33.02-.43.01-.66-.01-.24.19-.2.16-.38-.03-.19.12-.32.2-.74.08-.43-.24-.46-.27-.56-.03-.09-.01-.33.13-.43.14-.1.18-.31.15-.45s-.05-.09-.17-.07c-.12.03.04-.14.04-.14s.09-.14.09-.24c0-.09.09-.12.18-.2.09-.07-.01-.51-.01-.63s.16-.22.23-.22.09-.19.11-.26c.02-.07.06-.33.08-.45.02-.12-.14-.11-.15-.21 0-.09.12-.48.17-.64.04-.17.07-.21.06-.31 0-.1 0-.17.11-.31.11-.14.11-.24.13-.45.02-.21.48-1.31.54-1.66.06-.36.06-.24.15-.62.08-.38-.01-.35-.06-.54-.05-.19-.12-.21-.19-.13-.07.07-.1-.28-.13-.35-.03-.07-.29-.32-.29-.32s-.26-.06-.38-.04c-.12.03-.12-.02-.14-.09-.03-.07-.12-.09-.12-.09s-.01-.21-.01-.35c0-.14-.1-.12-.31-.16-.21-.04-.13-.35-.13-.42s-.03-.12-.1-.16c-.07-.04-.05-.07-.05-.16s-.05-.21-.13-.25c-.07-.04-.1-.19-.1-.26s-.08-.28-.17-.3c-.09-.02-.17-.3-.18-.49-.01-.19-.04-.45-.04-.54 0-.09-.1-.14-.25-.44s.07-.92.09-.99c.02-.07 0-.14-.03-.24-.03-.09.06-.21.15-.45.09-.24.06-.52.08-.59.02-.07-.03-.16-.08-.23s.01-.36.08-.43.2-.34.25-.45c.04-.12-.05-.14-.08-.21-.03-.07-.1-.14-.03-.3.07-.17.25-.31.34-.5.09-.19.17-.43.19-.55.02-.12.02-.14.11-.24.09-.1.08-.43.19-.64.11-.21.18-.29.36-.58s.31-.58.43-.72c.11-.14.11-.1.23-.12.12-.03.04-.24.04-.24s-.08-.23-.03-.38c.04-.14.18-.22.25-.36.07-.14.16-.26.46-.53.3-.27.44-.39.57-.75.13-.36.04-.19.16-.19s.21-.24.2-.31c0-.07.18-.33.39-.48.21-.15.08-.31.2-.52.11-.22.18-.24.41-.39.12-.01.27-.01.45-.02zm10.39 3.19c-.07.08-.23.08-.38.08-.14 0-.28.17-.39.29-.11.12-.41.39-.48.56-.07.17-.19.05-.44.16-.26.1-.21.15-.34.29-.14.14-.11.12-.09.24.03.12-.16.29-.27.31-.12.03-.3.22-.46.49-.16.26-.2.29-.2.48.01.19-.18.17-.3.24-.11.07-.34.32-.5.51-.16.19-.04.17-.2.38-.16.22-.12.08-.14.17-.02.09-.06.21-.3.36-.23.15-.23.12-.3.27-.07.14-.15.52-.15.52s-.04.24-.11.31-.14.1-.16.17c-.02.07-.21.17-.35.2-.14.03-.3.27-.46.48-.16.22-.18.36-.22.5-.04.14-.16.27-.27.41-.11.14-.22.36-.29.46-.07.1-.04.21-.2.29-.16.07-.2.27-.2.36 0 .09-.09.29-.27.46-.18.17-.24.48-.36.67-.11.19-.09.22-.13.38-.04.17-.18.36-.31.53-.14.17-.13.31-.24.74-.1.43.22.16.33.06.12-.1.18-.15.32-.24.14-.1.12-.07.3-.08.19-.01.3-.13.39-.22.09-.1.21-.17.39-.25.19-.08.16-.08.24.02.07.09.12.07.19.02s.09-.12.18-.15.17-.01.21-.08c.05-.07.09-.1.26-.15.16-.05.16-.08.21-.2.04-.12.11-.17.23-.2.12-.03.18-.27.18-.34s.09-.07.23-.05c.14.02.37-.2.3-.31-.07-.12.19-.12.23-.2.04-.07.16-.26.27-.36.11-.1.17-.05.33-.13s.39-.32.62-.65c.23-.34.11-.17.29-.44.18-.26.11-.21.27-.29.16-.07.18-.4.2-.48.02-.07.07-.1.19-.05.12.04.12-.05.11-.17 0-.12.04-.19.13-.24.09-.05.12.02.16-.12.04-.14.06-.21.2-.36.14-.14.25-.2.34-.36.09-.17.13-.43.13-.43l.19-.07s.06-.21.22-.46c.16-.24.18-.36.25-.43a.36.36 0 00.09-.26c0-.09.16-.24.2-.38.04-.14.1-.4.1-.4s.09-.14.18-.24c.09-.1.16-.31.13-.45s.11-.24.18-.29c.07-.05.13-.47.13-.47s.06-.29.01-.47c-.05-.19-.01-.42 0-.61.02-.19-.1-.26-.22-.32 0 0-.1-.11-.08-.19.02-.07-.09 0-.26.13M99.03 41.35z"/></g></svg>